<?xml version="1.0" encoding="UTF-8" standalone="no"?>
<!DOCTYPE svg PUBLIC "-//W3C//DTD SVG 1.1//EN" "http://www.w3.org/Graphics/SVG/1.1/DTD/svg11.dtd">
<svg width="100%" height="100%" viewBox="0 0 1967 463" version="1.1" xmlns="http://www.w3.org/2000/svg" xmlns:xlink="http://www.w3.org/1999/xlink" xml:space="preserve" style="fill-rule:evenodd;clip-rule:evenodd;stroke-linejoin:round;stroke-miterlimit:1.41421;">
    <g transform="matrix(4.16667,0,0,4.16667,0,0)">
        <path d="M151.487,65.32C144.973,65.239 139.925,66.786 139.925,71.589C139.925,74.765 142.042,76.312 144.81,76.312C147.904,76.312 150.428,74.277 151.243,71.752C151.405,71.101 151.487,70.369 151.487,69.635L151.487,65.32ZM152.952,84.128L152.219,80.139L151.975,80.139C149.37,83.314 145.299,85.024 140.576,85.024C132.516,85.024 127.712,79.162 127.712,72.811C127.712,62.47 136.994,57.503 151.08,57.585L151.08,57.015C151.08,54.898 149.94,51.886 143.833,51.886C139.762,51.886 135.447,53.27 132.841,54.898L130.562,46.919C133.33,45.372 138.785,43.418 146.032,43.418C159.303,43.418 163.537,51.234 163.537,60.598L163.537,74.439C163.537,78.266 163.7,81.93 164.107,84.128L152.952,84.128Z" style="fill:rgb(189,131,62);fill-rule:nonzero;"/>
        <path d="M185.683,67.03C185.683,68.007 185.764,68.903 185.927,69.635C186.741,72.974 189.591,75.497 193.173,75.497C198.547,75.497 201.722,71.02 201.722,64.261C201.722,57.911 198.873,53.107 193.336,53.107C189.835,53.107 186.741,55.712 185.927,59.376C185.764,60.028 185.683,60.842 185.683,61.575L185.683,67.03ZM173.307,57.666C173.307,52.455 173.144,47.977 172.981,44.313L183.729,44.313L184.298,49.85L184.461,49.85C187.392,45.616 191.952,43.418 197.733,43.418C206.445,43.418 214.261,50.99 214.261,63.692C214.261,78.185 205.061,85.024 196.186,85.024C191.382,85.024 187.637,83.07 185.845,80.464L185.683,80.464L185.683,100.249L173.307,100.249L173.307,57.666Z" style="fill:rgb(189,131,62);fill-rule:nonzero;"/>
        <path d="M234.37,67.03C234.37,68.007 234.452,68.903 234.614,69.635C235.428,72.974 238.278,75.497 241.861,75.497C247.235,75.497 250.41,71.02 250.41,64.261C250.41,57.911 247.56,53.107 242.023,53.107C238.522,53.107 235.428,55.712 234.614,59.376C234.452,60.028 234.37,60.842 234.37,61.575L234.37,67.03ZM221.994,57.666C221.994,52.455 221.831,47.977 221.668,44.313L232.416,44.313L232.986,49.85L233.149,49.85C236.08,45.616 240.639,43.418 246.42,43.418C255.132,43.418 262.949,50.99 262.949,63.692C262.949,78.185 253.749,85.024 244.874,85.024C240.069,85.024 236.324,83.07 234.533,80.464L234.37,80.464L234.37,100.249L221.994,100.249L221.994,57.666Z" style="fill:rgb(189,131,62);fill-rule:nonzero;"/>
        <path d="M270.682,76.8C272.799,78.185 276.544,79.65 280.126,79.65C285.337,79.65 287.781,77.044 287.781,73.788C287.781,70.369 285.745,68.496 280.453,66.541C273.369,64.017 270.031,60.109 270.031,55.387C270.031,49.036 275.16,43.825 283.628,43.825C287.618,43.825 291.119,44.965 293.317,46.267L291.526,51.478C289.979,50.501 287.129,49.199 283.465,49.199C279.231,49.199 276.87,51.642 276.87,54.573C276.87,57.83 279.231,59.295 284.361,61.249C291.2,63.855 294.701,67.274 294.701,73.136C294.701,80.057 289.328,84.943 279.964,84.943C275.649,84.943 271.659,83.884 268.891,82.255L270.682,76.8Z" style="fill:rgb(102,103,103);fill-rule:nonzero;"/>
        <path d="M308.297,64.506C308.297,73.136 313.263,79.65 320.266,79.65C327.105,79.65 332.235,73.218 332.235,64.343C332.235,57.666 328.896,49.199 320.429,49.199C311.96,49.199 308.297,57.015 308.297,64.506ZM339.563,64.099C339.563,78.673 329.466,85.024 319.94,85.024C309.274,85.024 301.05,77.207 301.05,64.75C301.05,51.56 309.681,43.825 320.591,43.825C331.909,43.825 339.563,52.048 339.563,64.099Z" style="fill:rgb(102,103,103);fill-rule:nonzero;"/>
        <rect x="348.598" y="26.32" width="7.165" height="57.808" style="fill:rgb(102,103,103);fill-rule:nonzero;"/>
        <path d="M400.789,73.38C400.789,77.452 400.871,81.035 401.115,84.128L394.763,84.128L394.357,77.696L394.194,77.696C392.321,80.871 388.168,85.024 381.167,85.024C374.978,85.024 367.569,81.604 367.569,67.763L367.569,44.721L374.734,44.721L374.734,66.541C374.734,74.033 377.014,79.08 383.528,79.08C388.332,79.08 391.669,75.742 392.972,72.567C393.379,71.508 393.624,70.205 393.624,68.903L393.624,44.721L400.789,44.721L400.789,73.38Z" style="fill:rgb(102,103,103);fill-rule:nonzero;"/>
        <path d="M421.305,33.403L421.305,44.721L431.564,44.721L431.564,50.176L421.305,50.176L421.305,71.427C421.305,76.312 422.689,79.08 426.679,79.08C428.552,79.08 429.936,78.836 430.832,78.591L431.158,83.965C429.773,84.536 427.575,84.943 424.806,84.943C421.468,84.943 418.781,83.884 417.072,81.93C415.036,79.813 414.303,76.312 414.303,71.671L414.303,50.176L408.197,50.176L408.197,44.721L414.303,44.721L414.303,35.276L421.305,33.403Z" style="fill:rgb(102,103,103);fill-rule:nonzero;"/>
        <path d="M464.132,60.598C464.213,56.038 462.259,48.955 454.199,48.955C446.952,48.955 443.777,55.631 443.207,60.598L464.132,60.598ZM443.125,65.727C443.289,75.416 449.476,79.406 456.641,79.406C461.771,79.406 464.865,78.51 467.551,77.371L468.773,82.499C466.249,83.64 461.933,84.943 455.664,84.943C443.533,84.943 436.286,76.963 436.286,65.076C436.286,53.188 443.289,43.825 454.768,43.825C467.633,43.825 471.052,55.142 471.052,62.389C471.052,63.855 470.89,64.995 470.808,65.727L443.125,65.727Z" style="fill:rgb(102,103,103);fill-rule:nonzero;"/>
        <path d="M6.626,67.519C2.188,64.937 0.679,59.247 3.26,54.808L30.93,7.248C33.512,2.809 39.205,1.304 43.644,3.886L91.201,31.553C95.643,34.134 97.144,39.827 94.567,44.267L66.899,91.823C64.314,96.264 58.625,97.765 54.184,95.186L6.626,67.519Z" style="fill:rgb(251,176,64);fill-rule:nonzero;"/>
        <path d="M39.034,0.624L39.102,0.624L39.17,0.625L39.238,0.627L39.307,0.628L39.375,0.631L39.443,0.633L39.512,0.636L39.58,0.64L39.648,0.644L39.717,0.648L39.785,0.653L39.854,0.658L39.922,0.663L39.99,0.669L40.059,0.676L40.127,0.682L40.196,0.69L40.264,0.697L40.332,0.705L40.401,0.714L40.469,0.723L40.537,0.732L40.605,0.742L40.674,0.752L40.742,0.763L40.81,0.774L40.878,0.785L40.946,0.797L41.015,0.809L41.083,0.822L41.151,0.835L41.219,0.849L41.287,0.863L41.355,0.877L41.423,0.892L41.49,0.908L41.558,0.923L41.626,0.94L41.694,0.956L41.761,0.973L41.829,0.991L41.896,1.009L41.964,1.027L42.031,1.046L42.098,1.065L42.166,1.085L42.233,1.105L42.3,1.125L42.367,1.146L42.434,1.168L42.501,1.189L42.568,1.212L42.634,1.234L42.701,1.258L42.768,1.281L42.834,1.305L42.9,1.33L42.967,1.355L43.033,1.38L43.099,1.406L43.165,1.432L43.231,1.459L43.297,1.486L43.362,1.513L43.428,1.541L43.493,1.57L43.559,1.599L43.624,1.628L43.689,1.658L43.754,1.688L43.819,1.719L43.883,1.75L43.948,1.781L44.013,1.813L44.077,1.845L44.141,1.878L44.205,1.912L44.269,1.945L44.333,1.98L44.397,2.014L44.46,2.049L44.523,2.085L44.587,2.121L44.647,2.156L92.209,29.826L92.269,29.86L92.331,29.898L92.393,29.935L92.455,29.973L92.517,30.011L92.578,30.05L92.639,30.089L92.7,30.128L92.76,30.167L92.82,30.207L92.88,30.247L92.939,30.288L92.998,30.329L93.057,30.37L93.116,30.412L93.174,30.454L93.231,30.496L93.289,30.538L93.346,30.581L93.403,30.624L93.459,30.668L93.515,30.711L93.571,30.755L93.627,30.8L93.682,30.845L93.736,30.89L93.791,30.935L93.845,30.98L93.899,31.026L93.952,31.073L94.005,31.119L94.058,31.166L94.11,31.213L94.163,31.26L94.214,31.308L94.266,31.356L94.317,31.404L94.367,31.452L94.418,31.501L94.468,31.55L94.517,31.599L94.567,31.649L94.616,31.699L94.664,31.749L94.713,31.799L94.761,31.85L94.808,31.901L94.855,31.952L94.902,32.003L94.949,32.055L94.995,32.107L95.041,32.159L95.086,32.211L95.131,32.264L95.176,32.317L95.221,32.37L95.265,32.423L95.308,32.477L95.352,32.531L95.395,32.585L95.437,32.639L95.479,32.694L95.521,32.748L95.563,32.803L95.604,32.859L95.645,32.914L95.685,32.97L95.725,33.026L95.765,33.082L95.804,33.138L95.843,33.194L95.882,33.251L95.92,33.308L95.958,33.365L95.996,33.423L96.033,33.48L96.07,33.538L96.106,33.596L96.142,33.654L96.178,33.712L96.213,33.771L96.248,33.829L96.283,33.888L96.317,33.947L96.351,34.007L96.384,34.066L96.417,34.125L96.45,34.185L96.483,34.245L96.515,34.305L96.546,34.366L96.577,34.426L96.608,34.487L96.639,34.548L96.669,34.609L96.699,34.67L96.728,34.731L96.757,34.793L96.786,34.854L96.814,34.916L96.842,34.978L96.869,35.04L96.896,35.102L96.923,35.165L96.949,35.227L96.975,35.29L97.001,35.353L97.026,35.416L97.051,35.479L97.075,35.542L97.099,35.605L97.123,35.669L97.146,35.733L97.169,35.796L97.192,35.86L97.214,35.924L97.236,35.988L97.257,36.053L97.278,36.117L97.299,36.181L97.319,36.246L97.339,36.311L97.358,36.376L97.377,36.441L97.396,36.506L97.414,36.571L97.432,36.636L97.45,36.702L97.467,36.767L97.484,36.833L97.5,36.898L97.516,36.964L97.531,37.03L97.546,37.096L97.561,37.162L97.576,37.228L97.59,37.295L97.603,37.361L97.616,37.427L97.629,37.494L97.642,37.561L97.654,37.627L97.665,37.694L97.676,37.761L97.687,37.828L97.698,37.895L97.708,37.962L97.717,38.029L97.726,38.096L97.735,38.163L97.744,38.231L97.752,38.298L97.759,38.365L97.766,38.433L97.773,38.5L97.78,38.568L97.786,38.636L97.791,38.703L97.796,38.771L97.801,38.839L97.806,38.907L97.809,38.975L97.813,39.043L97.816,39.111L97.819,39.179L97.821,39.247L97.823,39.315L97.825,39.383L97.826,39.451L97.827,39.519L97.827,39.587L97.827,39.656L97.826,39.724L97.825,39.792L97.824,39.86L97.822,39.929L97.82,39.997L97.817,40.065L97.814,40.134L97.811,40.202L97.807,40.27L97.803,40.339L97.798,40.407L97.793,40.476L97.787,40.544L97.781,40.612L97.775,40.681L97.768,40.749L97.761,40.817L97.753,40.886L97.745,40.954L97.737,41.022L97.728,41.091L97.719,41.159L97.709,41.227L97.699,41.295L97.688,41.364L97.677,41.432L97.666,41.5L97.654,41.568L97.642,41.636L97.629,41.704L97.616,41.772L97.602,41.84L97.588,41.908L97.574,41.976L97.559,42.044L97.544,42.112L97.528,42.18L97.512,42.247L97.495,42.315L97.478,42.383L97.461,42.45L97.443,42.518L97.425,42.585L97.406,42.653L97.387,42.72L97.367,42.787L97.347,42.854L97.326,42.922L97.306,42.989L97.284,43.055L97.262,43.122L97.24,43.189L97.218,43.256L97.194,43.323L97.171,43.389L97.147,43.456L97.122,43.522L97.098,43.588L97.072,43.654L97.047,43.72L97.02,43.786L96.994,43.852L96.967,43.918L96.939,43.984L96.911,44.049L96.883,44.115L96.854,44.18L96.825,44.245L96.795,44.31L96.765,44.375L96.735,44.44L96.703,44.505L96.672,44.569L96.64,44.634L96.608,44.698L96.575,44.762L96.542,44.826L96.508,44.89L96.474,44.954L96.439,45.018L96.404,45.081L96.369,45.145L96.333,45.208L96.298,45.269L68.626,92.832L68.591,92.892L68.554,92.954L68.516,93.017L68.478,93.079L68.44,93.14L68.401,93.201L68.362,93.262L68.323,93.323L68.284,93.383L68.244,93.443L68.203,93.503L68.163,93.562L68.122,93.621L68.081,93.68L68.039,93.738L67.997,93.796L67.955,93.854L67.912,93.912L67.869,93.969L67.826,94.025L67.783,94.082L67.739,94.138L67.695,94.194L67.651,94.249L67.606,94.304L67.561,94.359L67.516,94.413L67.47,94.467L67.424,94.521L67.378,94.575L67.331,94.628L67.285,94.68L67.237,94.733L67.19,94.785L67.142,94.837L67.095,94.888L67.046,94.939L66.998,94.99L66.949,95.04L66.9,95.09L66.851,95.14L66.801,95.189L66.751,95.238L66.701,95.286L66.651,95.335L66.6,95.383L66.549,95.43L66.498,95.477L66.447,95.524L66.395,95.571L66.343,95.617L66.291,95.663L66.239,95.708L66.186,95.753L66.133,95.798L66.08,95.842L66.027,95.886L65.973,95.93L65.919,95.973L65.865,96.016L65.811,96.059L65.756,96.101L65.702,96.143L65.647,96.185L65.591,96.226L65.536,96.266L65.48,96.307L65.424,96.347L65.368,96.387L65.312,96.426L65.255,96.465L65.199,96.504L65.142,96.542L65.085,96.58L65.027,96.617L64.97,96.654L64.912,96.691L64.854,96.728L64.796,96.764L64.738,96.799L64.679,96.835L64.621,96.87L64.562,96.904L64.503,96.938L64.443,96.972L64.384,97.006L64.325,97.039L64.265,97.072L64.205,97.104L64.144,97.136L64.084,97.168L64.024,97.199L63.963,97.23L63.902,97.26L63.841,97.29L63.78,97.32L63.719,97.349L63.657,97.378L63.596,97.407L63.534,97.435L63.472,97.463L63.41,97.49L63.348,97.518L63.285,97.544L63.223,97.571L63.16,97.597L63.097,97.622L63.034,97.647L62.971,97.672L62.908,97.697L62.845,97.721L62.781,97.744L62.718,97.768L62.654,97.79L62.59,97.813L62.526,97.835L62.462,97.857L62.398,97.878L62.333,97.899L62.269,97.92L62.204,97.94L62.139,97.96L62.074,97.979L62.009,97.998L61.944,98.017L61.879,98.035L61.814,98.053L61.749,98.071L61.683,98.088L61.617,98.104L61.552,98.121L61.486,98.137L61.42,98.152L61.354,98.167L61.288,98.182L61.222,98.196L61.156,98.21L61.089,98.224L61.023,98.237L60.956,98.25L60.89,98.262L60.823,98.274L60.756,98.286L60.69,98.297L60.623,98.308L60.556,98.318L60.489,98.328L60.421,98.338L60.354,98.347L60.287,98.356L60.22,98.364L60.152,98.372L60.085,98.38L60.017,98.387L59.95,98.394L59.882,98.4L59.815,98.406L59.747,98.412L59.679,98.417L59.612,98.422L59.544,98.426L59.476,98.43L59.408,98.434L59.34,98.437L59.272,98.439L59.204,98.442L59.136,98.444L59.068,98.445L58.999,98.446L58.931,98.447L58.863,98.447L58.795,98.447L58.727,98.447L58.658,98.446L58.59,98.444L58.522,98.442L58.453,98.44L58.385,98.438L58.317,98.435L58.248,98.431L58.18,98.427L58.112,98.423L58.043,98.418L57.975,98.413L57.907,98.408L57.838,98.402L57.77,98.395L57.701,98.388L57.633,98.381L57.565,98.374L57.496,98.366L57.428,98.357L57.36,98.348L57.292,98.339L57.223,98.329L57.155,98.319L57.087,98.308L57.019,98.297L56.951,98.286L56.882,98.274L56.814,98.262L56.746,98.249L56.678,98.236L56.61,98.222L56.542,98.208L56.474,98.194L56.406,98.179L56.339,98.163L56.271,98.148L56.203,98.132L56.135,98.115L56.068,98.098L56,98.08L55.933,98.063L55.865,98.044L55.798,98.025L55.731,98.006L55.663,97.987L55.596,97.967L55.529,97.946L55.462,97.925L55.395,97.904L55.328,97.882L55.261,97.86L55.195,97.837L55.128,97.814L55.062,97.79L54.995,97.766L54.929,97.742L54.862,97.717L54.796,97.692L54.73,97.666L54.664,97.64L54.598,97.613L54.533,97.586L54.467,97.558L54.401,97.531L54.336,97.502L54.271,97.473L54.205,97.444L54.14,97.414L54.075,97.384L54.011,97.354L53.946,97.323L53.881,97.291L53.817,97.259L53.752,97.227L53.688,97.194L53.624,97.161L53.56,97.127L53.496,97.093L53.433,97.058L53.369,97.023L53.306,96.988L53.243,96.952L53.182,96.917L5.618,69.246L5.557,69.211L5.495,69.174L5.433,69.136L5.371,69.098L5.309,69.06L5.248,69.022L5.187,68.983L5.127,68.944L5.066,68.904L5.006,68.864L4.947,68.824L4.887,68.783L4.828,68.742L4.77,68.701L4.711,68.66L4.653,68.618L4.596,68.576L4.538,68.533L4.481,68.49L4.424,68.447L4.368,68.404L4.312,68.36L4.256,68.316L4.201,68.272L4.146,68.227L4.091,68.182L4.037,68.137L3.983,68.091L3.929,68.045L3.875,67.999L3.822,67.953L3.77,67.906L3.717,67.859L3.665,67.811L3.614,67.764L3.562,67.716L3.511,67.668L3.46,67.619L3.41,67.571L3.36,67.522L3.31,67.472L3.261,67.423L3.212,67.373L3.164,67.323L3.115,67.273L3.067,67.222L3.02,67.171L2.973,67.12L2.926,67.069L2.879,67.017L2.833,66.965L2.787,66.913L2.742,66.861L2.697,66.808L2.652,66.755L2.608,66.702L2.564,66.649L2.52,66.595L2.477,66.541L2.434,66.487L2.391,66.433L2.349,66.378L2.307,66.324L2.265,66.269L2.224,66.214L2.183,66.158L2.143,66.103L2.103,66.047L2.063,65.991L2.024,65.934L1.985,65.878L1.946,65.821L1.908,65.764L1.87,65.707L1.833,65.65L1.795,65.592L1.759,65.535L1.722,65.477L1.686,65.419L1.65,65.36L1.615,65.302L1.58,65.243L1.545,65.184L1.511,65.125L1.477,65.066L1.444,65.007L1.411,64.947L1.378,64.887L1.346,64.828L1.314,64.767L1.282,64.707L1.251,64.647L1.22,64.586L1.189,64.525L1.159,64.464L1.129,64.403L1.1,64.342L1.071,64.28L1.042,64.219L1.014,64.157L0.986,64.095L0.959,64.033L0.932,63.971L0.905,63.909L0.878,63.846L0.852,63.783L0.827,63.721L0.802,63.658L0.777,63.595L0.752,63.531L0.728,63.468L0.705,63.405L0.681,63.341L0.658,63.277L0.636,63.213L0.614,63.149L0.592,63.085L0.57,63.021L0.549,62.957L0.529,62.892L0.508,62.827L0.489,62.763L0.469,62.698L0.45,62.633L0.431,62.568L0.413,62.503L0.395,62.437L0.378,62.372L0.36,62.307L0.344,62.241L0.327,62.175L0.311,62.11L0.296,62.044L0.281,61.978L0.266,61.912L0.251,61.845L0.237,61.779L0.224,61.713L0.211,61.646L0.198,61.58L0.185,61.513L0.173,61.447L0.162,61.38L0.15,61.313L0.14,61.246L0.129,61.179L0.119,61.112L0.11,61.045L0.1,60.978L0.091,60.911L0.083,60.843L0.075,60.776L0.067,60.709L0.06,60.641L0.053,60.574L0.047,60.506L0.041,60.438L0.035,60.371L0.03,60.303L0.025,60.235L0.021,60.167L0.017,60.099L0.013,60.032L0.01,59.964L0.007,59.896L0.005,59.827L0.003,59.759L0.001,59.691L0,59.623L0,59.555L-0.001,59.487L-0.001,59.419L0,59.35L0.001,59.282L0.002,59.214L0.004,59.145L0.006,59.077L0.009,59.009L0.012,58.94L0.015,58.872L0.019,58.804L0.023,58.735L0.028,58.667L0.033,58.599L0.039,58.53L0.044,58.462L0.051,58.393L0.058,58.325L0.065,58.257L0.072,58.188L0.08,58.12L0.089,58.052L0.098,57.983L0.107,57.915L0.117,57.847L0.127,57.779L0.138,57.71L0.149,57.642L0.16,57.574L0.172,57.506L0.184,57.438L0.197,57.37L0.21,57.302L0.224,57.234L0.238,57.166L0.252,57.098L0.267,57.03L0.282,56.962L0.298,56.894L0.314,56.826L0.331,56.759L0.348,56.691L0.365,56.624L0.383,56.556L0.401,56.489L0.42,56.421L0.439,56.354L0.459,56.287L0.479,56.219L0.5,56.152L0.521,56.085L0.542,56.018L0.564,55.951L0.586,55.885L0.609,55.818L0.632,55.751L0.655,55.685L0.679,55.618L0.704,55.552L0.729,55.486L0.754,55.419L0.78,55.353L0.806,55.287L0.833,55.222L0.86,55.156L0.887,55.09L0.915,55.025L0.944,54.959L0.973,54.894L1.002,54.829L1.032,54.763L1.062,54.698L1.093,54.634L1.124,54.569L1.155,54.504L1.187,54.44L1.219,54.375L1.252,54.311L1.286,54.247L1.319,54.183L1.353,54.119L1.388,54.056L1.423,53.992L1.459,53.929L1.495,53.866L1.53,53.805L29.203,6.24L29.238,6.18L29.275,6.117L29.313,6.055L29.35,5.993L29.389,5.931L29.427,5.87L29.466,5.809L29.505,5.749L29.545,5.688L29.585,5.628L29.625,5.569L29.666,5.509L29.707,5.45L29.748,5.392L29.789,5.333L29.831,5.275L29.873,5.217L29.916,5.16L29.959,5.103L30.002,5.046L30.045,4.99L30.089,4.934L30.133,4.878L30.178,4.823L30.222,4.768L30.267,4.713L30.313,4.658L30.358,4.604L30.404,4.551L30.45,4.497L30.497,4.444L30.544,4.391L30.591,4.339L30.638,4.287L30.686,4.235L30.733,4.184L30.782,4.133L30.83,4.082L30.879,4.032L30.928,3.982L30.977,3.932L31.027,3.883L31.077,3.834L31.127,3.785L31.177,3.737L31.228,3.689L31.279,3.642L31.33,3.594L31.381,3.547L31.433,3.501L31.485,3.455L31.537,3.409L31.589,3.364L31.642,3.318L31.695,3.274L31.748,3.229L31.801,3.185L31.855,3.142L31.909,3.098L31.963,3.055L32.017,3.013L32.071,2.971L32.126,2.929L32.181,2.887L32.236,2.846L32.292,2.805L32.347,2.765L32.403,2.725L32.459,2.685L32.516,2.646L32.572,2.607L32.629,2.568L32.686,2.53L32.743,2.492L32.8,2.454L32.858,2.417L32.916,2.38L32.973,2.344L33.032,2.308L33.09,2.272L33.148,2.237L33.207,2.202L33.266,2.167L33.325,2.133L33.384,2.099L33.444,2.066L33.503,2.033L33.563,2L33.623,1.968L33.683,1.936L33.744,1.904L33.804,1.873L33.865,1.842L33.925,1.811L33.986,1.781L34.048,1.752L34.109,1.722L34.17,1.693L34.232,1.665L34.294,1.636L34.356,1.608L34.418,1.581L34.48,1.554L34.542,1.527L34.605,1.501L34.668,1.475L34.73,1.449L34.793,1.424L34.856,1.399L34.92,1.375L34.983,1.351L35.047,1.327L35.11,1.304L35.174,1.281L35.238,1.258L35.302,1.236L35.366,1.214L35.43,1.193L35.495,1.172L35.559,1.151L35.624,1.131L35.689,1.111L35.753,1.092L35.818,1.073L35.883,1.054L35.949,1.036L36.014,1.018L36.079,1.001L36.145,0.983L36.21,0.967L36.276,0.95L36.342,0.934L36.408,0.919L36.474,0.904L36.54,0.889L36.606,0.875L36.672,0.861L36.739,0.847L36.805,0.834L36.872,0.821L36.938,0.809L37.005,0.797L37.072,0.785L37.139,0.774L37.205,0.763L37.272,0.753L37.34,0.743L37.407,0.733L37.474,0.724L37.541,0.715L37.608,0.707L37.676,0.699L37.743,0.691L37.811,0.684L37.878,0.677L37.946,0.671L38.014,0.665L38.081,0.659L38.149,0.654L38.217,0.649L38.285,0.645L38.353,0.641L38.421,0.637L38.489,0.634L38.557,0.631L38.625,0.629L38.693,0.627L38.761,0.626L38.829,0.625L38.897,0.624L38.965,0.624L39.034,0.624ZM38.925,4.624L38.881,4.624L38.837,4.625L38.793,4.626L38.749,4.627L38.705,4.629L38.661,4.63L38.617,4.632L38.574,4.635L38.53,4.637L38.486,4.64L38.442,4.643L38.398,4.647L38.354,4.65L38.31,4.654L38.267,4.658L38.223,4.663L38.179,4.667L38.136,4.672L38.092,4.677L38.049,4.683L38.005,4.688L37.962,4.694L37.918,4.701L37.875,4.707L37.831,4.714L37.788,4.721L37.745,4.728L37.701,4.736L37.658,4.743L37.615,4.751L37.572,4.76L37.529,4.768L37.486,4.777L37.443,4.786L37.4,4.795L37.357,4.805L37.315,4.815L37.272,4.825L37.229,4.835L37.187,4.846L37.144,4.857L37.102,4.868L37.06,4.879L37.017,4.891L36.975,4.902L36.933,4.915L36.891,4.927L36.849,4.939L36.807,4.952L36.765,4.965L36.723,4.979L36.681,4.992L36.64,5.006L36.598,5.02L36.557,5.035L36.515,5.049L36.474,5.064L36.433,5.079L36.392,5.095L36.351,5.11L36.31,5.126L36.269,5.142L36.228,5.158L36.188,5.175L36.147,5.192L36.107,5.209L36.066,5.226L36.026,5.244L35.986,5.261L35.946,5.279L35.906,5.298L35.866,5.316L35.826,5.335L35.786,5.354L35.747,5.373L35.707,5.393L35.668,5.412L35.629,5.432L35.59,5.452L35.551,5.473L35.512,5.493L35.473,5.514L35.435,5.536L35.396,5.557L35.358,5.579L35.32,5.6L35.281,5.622L35.243,5.645L35.206,5.667L35.168,5.69L35.13,5.713L35.093,5.736L35.055,5.76L35.018,5.784L34.981,5.808L34.944,5.832L34.907,5.856L34.871,5.881L34.834,5.906L34.798,5.931L34.761,5.956L34.725,5.982L34.689,6.008L34.653,6.034L34.618,6.06L34.582,6.087L34.547,6.113L34.511,6.14L34.476,6.168L34.441,6.195L34.406,6.223L34.372,6.251L34.337,6.279L34.303,6.307L34.269,6.336L34.235,6.364L34.201,6.393L34.167,6.423L34.133,6.452L34.1,6.482L34.067,6.512L34.034,6.542L34.001,6.572L33.968,6.603L33.936,6.634L33.903,6.665L33.871,6.696L33.839,6.728L33.807,6.759L33.775,6.791L33.744,6.823L33.712,6.856L33.681,6.888L33.65,6.921L33.619,6.954L33.588,6.988L33.558,7.021L33.528,7.055L33.497,7.089L33.468,7.123L33.438,7.158L33.408,7.192L33.379,7.227L33.35,7.262L33.321,7.298L33.292,7.333L33.263,7.369L33.235,7.405L33.206,7.441L33.178,7.478L33.15,7.514L33.123,7.551L33.095,7.588L33.068,7.626L33.041,7.663L33.014,7.701L32.987,7.739L32.961,7.777L32.934,7.816L32.908,7.854L32.882,7.893L32.857,7.932L32.831,7.972L32.806,8.011L32.781,8.051L32.756,8.091L32.731,8.131L32.707,8.172L32.683,8.213L32.657,8.256L4.99,55.811L4.965,55.854L4.942,55.896L4.919,55.937L4.896,55.978L4.873,56.02L4.851,56.061L4.829,56.103L4.808,56.144L4.786,56.186L4.765,56.228L4.745,56.269L4.724,56.311L4.704,56.353L4.684,56.395L4.665,56.437L4.645,56.479L4.627,56.521L4.608,56.564L4.589,56.606L4.571,56.648L4.554,56.691L4.536,56.733L4.519,56.776L4.502,56.818L4.485,56.861L4.469,56.904L4.453,56.946L4.437,56.989L4.422,57.032L4.407,57.075L4.392,57.118L4.377,57.161L4.363,57.204L4.349,57.247L4.335,57.29L4.321,57.333L4.308,57.376L4.295,57.42L4.283,57.463L4.27,57.506L4.258,57.55L4.246,57.593L4.235,57.637L4.224,57.68L4.213,57.724L4.202,57.767L4.192,57.811L4.182,57.854L4.172,57.898L4.162,57.942L4.153,57.985L4.144,58.029L4.135,58.073L4.127,58.117L4.118,58.16L4.11,58.204L4.103,58.248L4.095,58.292L4.088,58.336L4.082,58.38L4.075,58.424L4.069,58.468L4.063,58.512L4.057,58.556L4.052,58.6L4.046,58.644L4.042,58.688L4.037,58.732L4.033,58.776L4.028,58.82L4.025,58.864L4.021,58.908L4.018,58.952L4.015,58.996L4.012,59.04L4.01,59.084L4.007,59.128L4.005,59.172L4.004,59.217L4.002,59.261L4.001,59.305L4,59.349L4,59.393L3.999,59.437L3.999,59.481L3.999,59.525L4,59.569L4.001,59.613L4.002,59.657L4.003,59.701L4.004,59.745L4.006,59.789L4.008,59.833L4.011,59.877L4.013,59.921L4.016,59.964L4.019,60.008L4.023,60.052L4.026,60.096L4.03,60.14L4.034,60.183L4.039,60.227L4.043,60.271L4.048,60.314L4.053,60.358L4.059,60.401L4.065,60.445L4.071,60.488L4.077,60.532L4.083,60.575L4.09,60.619L4.097,60.662L4.104,60.705L4.112,60.748L4.12,60.791L4.128,60.835L4.136,60.878L4.145,60.921L4.153,60.964L4.162,61.007L4.172,61.049L4.181,61.092L4.191,61.135L4.201,61.178L4.212,61.22L4.222,61.263L4.233,61.305L4.244,61.348L4.256,61.39L4.267,61.432L4.279,61.475L4.291,61.517L4.303,61.559L4.316,61.601L4.329,61.643L4.342,61.685L4.355,61.726L4.369,61.768L4.383,61.81L4.397,61.851L4.411,61.893L4.426,61.934L4.441,61.975L4.456,62.016L4.471,62.058L4.487,62.099L4.503,62.139L4.519,62.18L4.535,62.221L4.552,62.262L4.569,62.302L4.586,62.343L4.603,62.383L4.62,62.423L4.638,62.463L4.656,62.504L4.675,62.543L4.693,62.583L4.712,62.623L4.731,62.663L4.75,62.702L4.77,62.742L4.789,62.781L4.809,62.82L4.83,62.859L4.85,62.898L4.871,62.937L4.892,62.976L4.913,63.014L4.934,63.053L4.956,63.091L4.978,63.129L5,63.168L5.022,63.206L5.045,63.244L5.067,63.281L5.091,63.319L5.114,63.356L5.137,63.394L5.161,63.431L5.185,63.468L5.209,63.505L5.234,63.542L5.258,63.578L5.283,63.615L5.308,63.651L5.334,63.688L5.359,63.724L5.385,63.76L5.411,63.796L5.438,63.831L5.464,63.867L5.491,63.902L5.518,63.938L5.545,63.973L5.573,64.008L5.6,64.043L5.628,64.077L5.656,64.112L5.685,64.146L5.713,64.18L5.742,64.214L5.771,64.248L5.8,64.282L5.83,64.315L5.86,64.349L5.89,64.382L5.92,64.415L5.95,64.448L5.981,64.481L6.011,64.513L6.043,64.546L6.074,64.578L6.105,64.61L6.137,64.642L6.169,64.674L6.201,64.705L6.234,64.737L6.266,64.768L6.299,64.799L6.332,64.83L6.366,64.861L6.399,64.891L6.433,64.921L6.467,64.952L6.501,64.981L6.536,65.011L6.57,65.041L6.605,65.07L6.64,65.099L6.676,65.128L6.711,65.157L6.747,65.186L6.783,65.214L6.819,65.243L6.856,65.271L6.892,65.299L6.929,65.326L6.966,65.354L7.004,65.381L7.041,65.408L7.079,65.435L7.117,65.462L7.155,65.488L7.194,65.515L7.232,65.541L7.271,65.567L7.31,65.592L7.35,65.618L7.389,65.643L7.429,65.668L7.469,65.693L7.51,65.718L7.55,65.742L7.591,65.766L7.634,65.792L55.186,93.455L55.23,93.48L55.271,93.504L55.312,93.527L55.353,93.55L55.395,93.572L55.436,93.594L55.478,93.616L55.52,93.638L55.561,93.659L55.603,93.68L55.645,93.701L55.687,93.721L55.729,93.741L55.771,93.761L55.813,93.781L55.855,93.8L55.897,93.819L55.94,93.838L55.982,93.856L56.024,93.874L56.067,93.892L56.109,93.909L56.152,93.927L56.195,93.944L56.237,93.96L56.28,93.977L56.323,93.993L56.365,94.008L56.408,94.024L56.451,94.039L56.494,94.054L56.537,94.069L56.58,94.083L56.624,94.097L56.667,94.111L56.71,94.124L56.753,94.137L56.796,94.15L56.84,94.163L56.883,94.175L56.927,94.188L56.97,94.199L57.014,94.211L57.057,94.222L57.101,94.233L57.144,94.244L57.188,94.254L57.231,94.264L57.275,94.274L57.319,94.284L57.362,94.293L57.406,94.302L57.45,94.311L57.494,94.319L57.538,94.328L57.582,94.335L57.625,94.343L57.669,94.351L57.713,94.358L57.757,94.364L57.801,94.371L57.845,94.377L57.889,94.383L57.933,94.389L57.977,94.395L58.021,94.4L58.066,94.405L58.11,94.409L58.154,94.414L58.198,94.418L58.242,94.422L58.286,94.425L58.33,94.429L58.374,94.432L58.418,94.434L58.462,94.437L58.506,94.439L58.55,94.441L58.595,94.443L58.639,94.444L58.683,94.445L58.727,94.446L58.771,94.447L58.815,94.447L58.859,94.447L58.903,94.447L58.947,94.447L58.991,94.446L59.035,94.445L59.079,94.444L59.123,94.442L59.167,94.44L59.211,94.438L59.255,94.436L59.299,94.434L59.343,94.431L59.387,94.428L59.431,94.424L59.474,94.421L59.518,94.417L59.562,94.413L59.605,94.408L59.649,94.404L59.693,94.399L59.736,94.394L59.78,94.388L59.823,94.382L59.867,94.376L59.91,94.37L59.954,94.364L59.997,94.357L60.041,94.35L60.084,94.343L60.127,94.335L60.17,94.328L60.213,94.32L60.256,94.311L60.299,94.303L60.342,94.294L60.385,94.285L60.428,94.276L60.471,94.266L60.514,94.256L60.556,94.246L60.599,94.236L60.642,94.225L60.684,94.214L60.726,94.203L60.769,94.192L60.811,94.18L60.853,94.169L60.896,94.157L60.938,94.144L60.98,94.132L61.021,94.119L61.063,94.106L61.105,94.092L61.147,94.079L61.188,94.065L61.23,94.051L61.271,94.037L61.313,94.022L61.354,94.007L61.395,93.992L61.436,93.977L61.477,93.961L61.518,93.945L61.559,93.929L61.6,93.913L61.641,93.896L61.681,93.88L61.722,93.863L61.762,93.845L61.802,93.828L61.842,93.81L61.882,93.792L61.922,93.774L61.962,93.755L62.002,93.736L62.042,93.717L62.081,93.698L62.12,93.679L62.16,93.659L62.199,93.639L62.238,93.619L62.277,93.599L62.316,93.578L62.355,93.557L62.393,93.536L62.432,93.514L62.47,93.493L62.508,93.471L62.547,93.449L62.585,93.427L62.622,93.404L62.66,93.381L62.698,93.358L62.735,93.335L62.773,93.312L62.81,93.288L62.847,93.264L62.884,93.24L62.921,93.215L62.957,93.191L62.994,93.166L63.03,93.14L63.067,93.115L63.103,93.09L63.139,93.064L63.175,93.038L63.21,93.011L63.246,92.985L63.281,92.958L63.317,92.931L63.352,92.904L63.387,92.877L63.422,92.849L63.456,92.821L63.491,92.793L63.525,92.765L63.559,92.736L63.593,92.707L63.627,92.678L63.661,92.649L63.695,92.619L63.728,92.59L63.761,92.56L63.794,92.53L63.827,92.499L63.86,92.469L63.893,92.438L63.925,92.407L63.957,92.375L63.989,92.344L64.021,92.312L64.053,92.28L64.085,92.248L64.116,92.216L64.147,92.183L64.178,92.15L64.209,92.117L64.24,92.084L64.27,92.05L64.301,92.016L64.331,91.982L64.361,91.948L64.391,91.914L64.42,91.879L64.45,91.844L64.479,91.809L64.508,91.774L64.537,91.738L64.566,91.702L64.594,91.666L64.622,91.63L64.65,91.594L64.678,91.557L64.706,91.52L64.734,91.483L64.761,91.445L64.788,91.408L64.815,91.37L64.842,91.332L64.868,91.294L64.895,91.255L64.921,91.217L64.947,91.178L64.972,91.138L64.998,91.099L65.023,91.059L65.048,91.02L65.073,90.98L65.098,90.939L65.122,90.899L65.146,90.858L65.172,90.814L92.836,43.265L92.861,43.222L92.884,43.181L92.907,43.139L92.93,43.098L92.953,43.057L92.975,43.015L92.997,42.974L93.018,42.932L93.04,42.89L93.061,42.849L93.081,42.807L93.102,42.765L93.122,42.723L93.142,42.681L93.161,42.639L93.18,42.596L93.199,42.554L93.218,42.512L93.236,42.47L93.254,42.427L93.272,42.385L93.29,42.342L93.307,42.3L93.324,42.257L93.34,42.215L93.357,42.172L93.373,42.129L93.389,42.086L93.404,42.043L93.419,42L93.434,41.957L93.449,41.914L93.463,41.871L93.477,41.828L93.491,41.785L93.504,41.742L93.518,41.699L93.53,41.655L93.543,41.612L93.555,41.569L93.568,41.525L93.579,41.482L93.591,41.438L93.602,41.395L93.613,41.351L93.624,41.308L93.634,41.264L93.644,41.22L93.654,41.176L93.664,41.133L93.673,41.089L93.682,41.045L93.691,41.002L93.699,40.958L93.707,40.914L93.715,40.87L93.723,40.826L93.73,40.782L93.737,40.738L93.744,40.694L93.751,40.65L93.757,40.606L93.763,40.562L93.769,40.518L93.774,40.474L93.779,40.43L93.784,40.386L93.789,40.342L93.793,40.298L93.798,40.254L93.801,40.21L93.805,40.166L93.808,40.121L93.811,40.077L93.814,40.033L93.816,39.989L93.819,39.945L93.821,39.901L93.822,39.857L93.824,39.813L93.825,39.768L93.826,39.724L93.826,39.68L93.827,39.636L93.827,39.592L93.827,39.548L93.826,39.504L93.825,39.46L93.824,39.416L93.823,39.372L93.822,39.328L93.82,39.284L93.818,39.24L93.816,39.196L93.813,39.152L93.81,39.108L93.807,39.064L93.804,39.021L93.8,38.977L93.796,38.933L93.792,38.889L93.788,38.845L93.783,38.802L93.778,38.758L93.773,38.714L93.768,38.671L93.762,38.627L93.756,38.584L93.75,38.54L93.743,38.497L93.736,38.454L93.729,38.41L93.722,38.367L93.715,38.324L93.707,38.281L93.699,38.237L93.691,38.194L93.682,38.151L93.673,38.108L93.664,38.065L93.655,38.023L93.645,37.98L93.635,37.937L93.625,37.894L93.615,37.852L93.604,37.809L93.594,37.766L93.583,37.724L93.571,37.682L93.56,37.639L93.548,37.597L93.536,37.555L93.523,37.513L93.511,37.471L93.498,37.429L93.485,37.387L93.471,37.345L93.458,37.304L93.444,37.262L93.43,37.22L93.416,37.179L93.401,37.138L93.386,37.096L93.371,37.055L93.356,37.014L93.34,36.973L93.324,36.932L93.308,36.891L93.292,36.851L93.275,36.81L93.259,36.769L93.242,36.729L93.224,36.688L93.207,36.648L93.189,36.608L93.171,36.568L93.153,36.528L93.134,36.488L93.115,36.448L93.096,36.409L93.077,36.369L93.058,36.33L93.038,36.29L93.018,36.251L92.998,36.212L92.977,36.173L92.957,36.134L92.936,36.096L92.915,36.057L92.893,36.019L92.872,35.98L92.85,35.942L92.828,35.904L92.806,35.866L92.783,35.828L92.76,35.79L92.737,35.753L92.714,35.715L92.69,35.678L92.667,35.641L92.643,35.603L92.618,35.567L92.594,35.53L92.569,35.493L92.545,35.457L92.519,35.42L92.494,35.384L92.468,35.348L92.443,35.312L92.417,35.276L92.39,35.24L92.364,35.205L92.337,35.169L92.31,35.134L92.283,35.099L92.255,35.064L92.228,35.029L92.2,34.994L92.172,34.96L92.143,34.926L92.115,34.892L92.086,34.857L92.057,34.824L92.028,34.79L91.998,34.756L91.969,34.723L91.939,34.69L91.908,34.657L91.878,34.624L91.848,34.591L91.817,34.558L91.786,34.526L91.754,34.494L91.723,34.462L91.691,34.43L91.659,34.398L91.627,34.367L91.594,34.335L91.562,34.304L91.529,34.273L91.496,34.242L91.463,34.212L91.429,34.181L91.395,34.151L91.361,34.121L91.327,34.091L91.293,34.061L91.258,34.031L91.223,34.002L91.188,33.973L91.153,33.944L91.117,33.915L91.081,33.886L91.045,33.858L91.009,33.829L90.973,33.801L90.936,33.774L90.899,33.746L90.862,33.718L90.825,33.691L90.787,33.664L90.749,33.637L90.711,33.61L90.673,33.584L90.634,33.558L90.596,33.532L90.557,33.506L90.518,33.48L90.478,33.455L90.439,33.429L90.399,33.404L90.359,33.379L90.318,33.355L90.278,33.33L90.237,33.306L90.193,33.28L42.641,5.616L42.597,5.591L42.556,5.568L42.515,5.545L42.474,5.522L42.432,5.499L42.391,5.477L42.349,5.455L42.308,5.433L42.266,5.412L42.224,5.391L42.182,5.37L42.14,5.35L42.099,5.33L42.056,5.31L42.014,5.29L41.972,5.271L41.93,5.252L41.888,5.233L41.846,5.215L41.803,5.197L41.761,5.179L41.718,5.162L41.676,5.144L41.633,5.128L41.59,5.111L41.548,5.095L41.505,5.078L41.462,5.063L41.419,5.047L41.376,5.032L41.334,5.017L41.291,5.002L41.247,4.988L41.204,4.974L41.161,4.96L41.118,4.947L41.075,4.933L41.032,4.921L40.988,4.908L40.945,4.895L40.902,4.883L40.858,4.872L40.815,4.86L40.771,4.849L40.728,4.838L40.684,4.827L40.64,4.817L40.597,4.807L40.553,4.797L40.509,4.787L40.466,4.778L40.422,4.769L40.378,4.76L40.334,4.752L40.291,4.743L40.247,4.735L40.203,4.728L40.159,4.72L40.115,4.713L40.071,4.706L40.027,4.7L39.983,4.694L39.939,4.688L39.895,4.682L39.851,4.676L39.807,4.671L39.763,4.666L39.719,4.662L39.675,4.657L39.631,4.653L39.587,4.649L39.543,4.646L39.499,4.642L39.454,4.639L39.41,4.637L39.366,4.634L39.322,4.632L39.278,4.63L39.234,4.628L39.19,4.627L39.146,4.626L39.102,4.625L39.058,4.624L39.013,4.624L38.969,4.624L38.925,4.624Z" style="fill:white;"/>
        <path d="M28.133,95.528C22.999,95.5 18.859,91.322 18.881,86.182L19.144,31.167C19.168,26.033 23.348,21.889 28.488,21.913L83.509,22.173C88.644,22.199 92.787,26.383 92.76,31.517L92.498,86.535C92.473,91.674 88.288,95.814 83.154,95.788L28.133,95.528Z" style="fill:rgb(251,176,64);fill-rule:nonzero;"/>
        <path d="M28.494,19.913L83.522,20.173L83.592,20.174L83.665,20.175L83.737,20.176L83.81,20.178L83.882,20.181L83.954,20.183L84.027,20.187L84.099,20.191L84.171,20.195L84.243,20.2L84.314,20.205L84.386,20.21L84.458,20.216L84.529,20.223L84.6,20.23L84.672,20.237L84.743,20.245L84.814,20.253L84.884,20.262L84.955,20.271L85.026,20.281L85.096,20.291L85.166,20.301L85.237,20.312L85.307,20.323L85.376,20.335L85.446,20.347L85.516,20.36L85.585,20.373L85.655,20.386L85.724,20.4L85.793,20.414L85.862,20.429L85.93,20.444L85.999,20.459L86.067,20.475L86.136,20.492L86.204,20.508L86.272,20.526L86.339,20.543L86.407,20.561L86.474,20.579L86.542,20.598L86.609,20.617L86.676,20.637L86.742,20.657L86.809,20.677L86.876,20.698L86.942,20.719L87.008,20.741L87.074,20.763L87.139,20.785L87.205,20.808L87.27,20.831L87.335,20.855L87.4,20.879L87.465,20.903L87.53,20.928L87.594,20.953L87.658,20.978L87.722,21.004L87.786,21.03L87.85,21.057L87.913,21.084L87.976,21.111L88.039,21.139L88.102,21.167L88.165,21.195L88.227,21.224L88.289,21.253L88.351,21.283L88.413,21.313L88.474,21.343L88.536,21.374L88.597,21.405L88.658,21.436L88.718,21.468L88.779,21.5L88.839,21.532L88.899,21.565L88.959,21.598L89.018,21.632L89.078,21.665L89.137,21.699L89.196,21.734L89.254,21.769L89.313,21.804L89.371,21.839L89.429,21.875L89.486,21.912L89.544,21.948L89.601,21.985L89.658,22.022L89.715,22.06L89.771,22.097L89.828,22.136L89.884,22.174L89.939,22.213L89.995,22.252L90.05,22.292L90.105,22.331L90.16,22.371L90.215,22.412L90.269,22.453L90.323,22.494L90.377,22.535L90.43,22.577L90.483,22.619L90.536,22.661L90.589,22.704L90.641,22.747L90.694,22.79L90.746,22.833L90.797,22.877L90.849,22.921L90.9,22.966L90.951,23.011L91.001,23.056L91.051,23.101L91.101,23.147L91.151,23.193L91.201,23.239L91.25,23.285L91.299,23.332L91.347,23.379L91.396,23.427L91.444,23.474L91.491,23.522L91.539,23.571L91.586,23.619L91.633,23.668L91.68,23.717L91.726,23.766L91.772,23.816L91.818,23.866L91.863,23.916L91.908,23.967L91.953,24.017L91.998,24.068L92.042,24.12L92.086,24.171L92.13,24.223L92.173,24.275L92.216,24.327L92.259,24.38L92.301,24.433L92.343,24.486L92.385,24.539L92.426,24.593L92.468,24.647L92.508,24.701L92.549,24.756L92.589,24.81L92.629,24.865L92.669,24.92L92.708,24.976L92.747,25.031L92.785,25.087L92.824,25.143L92.862,25.2L92.899,25.256L92.936,25.313L92.973,25.371L93.01,25.428L93.046,25.485L93.082,25.543L93.118,25.601L93.153,25.66L93.188,25.718L93.223,25.777L93.257,25.836L93.291,25.895L93.324,25.955L93.357,26.014L93.39,26.074L93.423,26.134L93.455,26.195L93.487,26.255L93.518,26.316L93.549,26.377L93.58,26.438L93.61,26.499L93.64,26.561L93.67,26.623L93.699,26.685L93.728,26.747L93.757,26.81L93.785,26.872L93.813,26.935L93.84,26.998L93.867,27.061L93.894,27.125L93.92,27.189L93.946,27.253L93.972,27.316L93.997,27.381L94.022,27.445L94.046,27.51L94.07,27.575L94.094,27.64L94.117,27.705L94.14,27.77L94.163,27.836L94.185,27.901L94.206,27.967L94.228,28.033L94.249,28.1L94.269,28.166L94.289,28.233L94.309,28.3L94.328,28.367L94.347,28.434L94.366,28.501L94.384,28.568L94.402,28.636L94.419,28.704L94.436,28.772L94.452,28.84L94.468,28.908L94.484,28.976L94.499,29.045L94.514,29.114L94.528,29.183L94.542,29.252L94.556,29.321L94.569,29.39L94.582,29.459L94.594,29.529L94.606,29.599L94.617,29.669L94.628,29.739L94.639,29.809L94.649,29.879L94.659,29.95L94.668,30.02L94.677,30.091L94.685,30.162L94.693,30.232L94.701,30.303L94.708,30.375L94.714,30.446L94.721,30.517L94.726,30.589L94.732,30.66L94.736,30.732L94.741,30.804L94.745,30.876L94.748,30.948L94.751,31.02L94.754,31.092L94.756,31.164L94.758,31.237L94.759,31.309L94.76,31.382L94.76,31.455L94.76,31.524L94.498,86.548L94.497,86.617L94.496,86.69L94.495,86.763L94.493,86.835L94.49,86.908L94.488,86.98L94.484,87.053L94.481,87.125L94.476,87.197L94.472,87.269L94.466,87.34L94.461,87.412L94.455,87.484L94.448,87.555L94.441,87.627L94.434,87.698L94.426,87.769L94.418,87.84L94.409,87.911L94.4,87.982L94.391,88.052L94.381,88.123L94.37,88.193L94.36,88.263L94.348,88.333L94.337,88.403L94.324,88.473L94.312,88.542L94.299,88.612L94.285,88.681L94.272,88.75L94.257,88.82L94.243,88.889L94.228,88.957L94.212,89.026L94.196,89.094L94.18,89.163L94.163,89.231L94.146,89.299L94.128,89.366L94.11,89.434L94.092,89.501L94.073,89.569L94.054,89.636L94.034,89.703L94.014,89.77L93.994,89.836L93.973,89.903L93.952,89.969L93.93,90.035L93.908,90.101L93.886,90.167L93.863,90.232L93.84,90.298L93.817,90.363L93.793,90.428L93.768,90.492L93.744,90.557L93.719,90.622L93.693,90.686L93.667,90.75L93.641,90.814L93.615,90.877L93.588,90.94L93.56,91.004L93.533,91.067L93.504,91.13L93.476,91.192L93.447,91.255L93.418,91.317L93.389,91.379L93.359,91.44L93.328,91.502L93.298,91.563L93.267,91.625L93.235,91.685L93.204,91.746L93.172,91.807L93.139,91.867L93.107,91.927L93.073,91.987L93.04,92.046L93.006,92.106L92.972,92.165L92.938,92.224L92.903,92.282L92.868,92.341L92.832,92.399L92.796,92.457L92.76,92.515L92.723,92.572L92.687,92.629L92.649,92.686L92.612,92.743L92.574,92.799L92.536,92.856L92.497,92.912L92.458,92.968L92.419,93.023L92.38,93.078L92.34,93.133L92.3,93.188L92.26,93.243L92.219,93.297L92.178,93.351L92.136,93.405L92.095,93.458L92.053,93.511L92.01,93.564L91.968,93.617L91.925,93.67L91.882,93.722L91.838,93.774L91.794,93.825L91.75,93.877L91.705,93.928L91.661,93.979L91.616,94.029L91.57,94.08L91.525,94.13L91.479,94.179L91.432,94.229L91.386,94.278L91.339,94.327L91.292,94.376L91.245,94.424L91.197,94.472L91.149,94.52L91.101,94.567L91.052,94.614L91.003,94.661L90.954,94.708L90.905,94.754L90.855,94.8L90.805,94.846L90.755,94.891L90.705,94.937L90.654,94.981L90.603,95.026L90.552,95.07L90.5,95.114L90.448,95.158L90.396,95.201L90.344,95.244L90.291,95.287L90.238,95.329L90.185,95.371L90.132,95.413L90.078,95.455L90.024,95.496L89.97,95.537L89.916,95.577L89.861,95.617L89.806,95.657L89.751,95.697L89.695,95.736L89.64,95.775L89.584,95.813L89.528,95.852L89.471,95.89L89.415,95.927L89.358,95.965L89.301,96.001L89.243,96.038L89.186,96.074L89.128,96.11L89.07,96.146L89.011,96.181L88.953,96.216L88.894,96.251L88.835,96.285L88.776,96.319L88.716,96.352L88.657,96.385L88.597,96.418L88.537,96.451L88.476,96.483L88.416,96.515L88.355,96.546L88.294,96.577L88.233,96.608L88.172,96.638L88.11,96.668L88.048,96.698L87.986,96.727L87.924,96.756L87.861,96.785L87.799,96.813L87.736,96.841L87.673,96.868L87.61,96.895L87.546,96.922L87.482,96.948L87.419,96.974L87.355,97L87.29,97.025L87.226,97.05L87.161,97.074L87.096,97.098L87.031,97.122L86.966,97.145L86.901,97.168L86.835,97.19L86.77,97.212L86.704,97.234L86.637,97.255L86.571,97.276L86.505,97.297L86.438,97.317L86.372,97.337L86.304,97.356L86.237,97.375L86.17,97.394L86.103,97.412L86.035,97.429L85.967,97.447L85.899,97.463L85.831,97.48L85.763,97.496L85.695,97.512L85.626,97.527L85.557,97.542L85.488,97.556L85.419,97.57L85.35,97.584L85.281,97.597L85.212,97.609L85.142,97.622L85.072,97.634L85.002,97.645L84.932,97.656L84.862,97.667L84.792,97.677L84.722,97.686L84.651,97.696L84.58,97.705L84.51,97.713L84.439,97.721L84.368,97.729L84.297,97.736L84.225,97.742L84.154,97.748L84.083,97.754L84.011,97.76L83.939,97.764L83.868,97.769L83.796,97.773L83.724,97.776L83.651,97.779L83.579,97.782L83.507,97.784L83.434,97.786L83.362,97.787L83.289,97.788L83.217,97.788L83.147,97.788L28.12,97.528L28.049,97.527L27.977,97.526L27.904,97.525L27.832,97.523L27.759,97.52L27.687,97.517L27.615,97.514L27.543,97.51L27.471,97.506L27.399,97.501L27.327,97.496L27.255,97.49L27.184,97.484L27.113,97.478L27.041,97.471L26.97,97.464L26.899,97.456L26.828,97.447L26.758,97.439L26.687,97.43L26.616,97.42L26.546,97.41L26.476,97.4L26.405,97.389L26.335,97.377L26.266,97.366L26.196,97.354L26.126,97.341L26.057,97.328L25.988,97.315L25.918,97.301L25.849,97.287L25.781,97.272L25.712,97.257L25.643,97.241L25.575,97.225L25.507,97.209L25.439,97.192L25.371,97.175L25.303,97.157L25.235,97.139L25.168,97.121L25.101,97.102L25.034,97.083L24.967,97.063L24.9,97.043L24.834,97.023L24.767,97.002L24.701,96.981L24.635,96.96L24.569,96.938L24.503,96.915L24.438,96.892L24.373,96.869L24.307,96.846L24.243,96.822L24.178,96.798L24.113,96.773L24.049,96.748L23.985,96.722L23.921,96.697L23.857,96.67L23.793,96.644L23.73,96.617L23.667,96.589L23.604,96.562L23.541,96.534L23.479,96.505L23.416,96.476L23.354,96.447L23.292,96.418L23.23,96.388L23.169,96.358L23.108,96.327L23.047,96.296L22.986,96.265L22.925,96.233L22.865,96.201L22.804,96.169L22.744,96.136L22.685,96.103L22.625,96.069L22.566,96.036L22.507,96.001L22.448,95.967L22.389,95.932L22.331,95.897L22.273,95.862L22.215,95.826L22.157,95.79L22.1,95.753L22.042,95.716L21.985,95.679L21.929,95.642L21.872,95.604L21.816,95.566L21.76,95.527L21.704,95.488L21.649,95.449L21.593,95.41L21.538,95.37L21.484,95.33L21.429,95.289L21.375,95.249L21.321,95.208L21.267,95.166L21.214,95.125L21.16,95.083L21.107,95.04L21.055,94.998L21.002,94.955L20.95,94.911L20.898,94.868L20.847,94.824L20.795,94.78L20.744,94.736L20.693,94.691L20.643,94.646L20.592,94.6L20.542,94.555L20.493,94.509L20.443,94.463L20.394,94.416L20.345,94.369L20.297,94.322L20.248,94.275L20.2,94.227L20.152,94.179L20.105,94.131L20.058,94.083L20.011,94.034L19.964,93.985L19.918,93.935L19.872,93.886L19.826,93.836L19.781,93.786L19.736,93.735L19.691,93.684L19.646,93.633L19.602,93.582L19.558,93.531L19.514,93.479L19.471,93.427L19.428,93.374L19.385,93.322L19.343,93.269L19.301,93.216L19.259,93.162L19.217,93.109L19.176,93.055L19.135,93.001L19.095,92.946L19.055,92.892L19.015,92.837L18.975,92.782L18.936,92.726L18.897,92.67L18.859,92.615L18.82,92.558L18.782,92.502L18.745,92.445L18.707,92.389L18.67,92.331L18.634,92.274L18.598,92.216L18.562,92.159L18.526,92.101L18.491,92.042L18.456,91.984L18.421,91.925L18.387,91.866L18.353,91.807L18.32,91.747L18.286,91.688L18.253,91.628L18.221,91.568L18.189,91.507L18.157,91.447L18.126,91.386L18.094,91.325L18.064,91.264L18.033,91.203L18.003,91.141L17.974,91.079L17.944,91.017L17.915,90.955L17.887,90.892L17.859,90.83L17.831,90.767L17.803,90.704L17.776,90.64L17.75,90.577L17.723,90.513L17.697,90.449L17.672,90.385L17.647,90.321L17.622,90.257L17.597,90.192L17.573,90.127L17.55,90.062L17.526,89.997L17.503,89.932L17.481,89.866L17.459,89.8L17.437,89.735L17.416,89.668L17.395,89.602L17.374,89.536L17.354,89.469L17.334,89.402L17.315,89.335L17.296,89.268L17.277,89.201L17.259,89.133L17.242,89.066L17.224,88.998L17.207,88.93L17.191,88.862L17.175,88.794L17.159,88.725L17.144,88.657L17.129,88.588L17.114,88.519L17.1,88.45L17.087,88.381L17.074,88.312L17.061,88.242L17.049,88.172L17.037,88.103L17.025,88.033L17.014,87.963L17.004,87.893L16.993,87.822L16.984,87.752L16.974,87.681L16.965,87.611L16.957,87.54L16.949,87.469L16.941,87.398L16.934,87.327L16.928,87.256L16.921,87.184L16.915,87.113L16.91,87.041L16.905,86.969L16.901,86.897L16.897,86.826L16.893,86.753L16.89,86.681L16.887,86.609L16.885,86.537L16.883,86.464L16.882,86.392L16.881,86.319L16.881,86.246L16.881,86.176L17.144,31.154L17.145,31.085L17.146,31.012L17.147,30.94L17.149,30.867L17.151,30.795L17.154,30.722L17.158,30.65L17.161,30.578L17.166,30.506L17.17,30.434L17.175,30.363L17.181,30.291L17.187,30.219L17.193,30.148L17.2,30.077L17.208,30.005L17.215,29.934L17.224,29.863L17.232,29.793L17.241,29.722L17.251,29.651L17.261,29.581L17.271,29.511L17.282,29.441L17.293,29.371L17.305,29.301L17.317,29.231L17.33,29.161L17.343,29.092L17.356,29.023L17.37,28.953L17.384,28.884L17.399,28.816L17.414,28.747L17.429,28.678L17.445,28.61L17.461,28.542L17.478,28.474L17.495,28.406L17.513,28.338L17.531,28.27L17.549,28.203L17.568,28.135L17.587,28.068L17.607,28.001L17.627,27.935L17.647,27.868L17.668,27.802L17.689,27.735L17.71,27.669L17.732,27.604L17.755,27.538L17.777,27.472L17.801,27.407L17.824,27.342L17.848,27.277L17.872,27.212L17.897,27.148L17.922,27.083L17.947,27.019L17.973,26.955L17.999,26.891L18.026,26.828L18.053,26.764L18.08,26.701L18.108,26.638L18.136,26.575L18.164,26.513L18.193,26.45L18.222,26.388L18.252,26.326L18.282,26.264L18.312,26.203L18.342,26.142L18.373,26.08L18.405,26.02L18.436,25.959L18.468,25.898L18.501,25.838L18.534,25.778L18.567,25.718L18.6,25.659L18.634,25.599L18.668,25.54L18.702,25.481L18.737,25.423L18.772,25.364L18.808,25.306L18.844,25.248L18.88,25.191L18.916,25.133L18.953,25.076L18.99,25.019L19.028,24.962L19.066,24.906L19.104,24.849L19.142,24.793L19.181,24.737L19.22,24.682L19.26,24.627L19.299,24.572L19.339,24.517L19.38,24.462L19.421,24.408L19.462,24.354L19.503,24.3L19.545,24.247L19.587,24.193L19.629,24.14L19.672,24.088L19.714,24.035L19.758,23.983L19.801,23.931L19.845,23.879L19.889,23.828L19.934,23.777L19.978,23.726L20.023,23.675L20.069,23.625L20.114,23.575L20.16,23.525L20.207,23.476L20.253,23.427L20.3,23.378L20.347,23.329L20.394,23.281L20.442,23.233L20.49,23.185L20.538,23.137L20.587,23.09L20.635,23.043L20.685,22.997L20.734,22.95L20.784,22.904L20.833,22.859L20.884,22.813L20.934,22.768L20.985,22.723L21.036,22.678L21.087,22.634L21.139,22.59L21.19,22.547L21.243,22.503L21.295,22.46L21.348,22.417L21.4,22.375L21.453,22.333L21.507,22.291L21.561,22.25L21.614,22.208L21.669,22.168L21.723,22.127L21.778,22.087L21.833,22.047L21.888,22.007L21.943,21.968L21.999,21.929L22.055,21.89L22.111,21.852L22.167,21.814L22.224,21.777L22.281,21.739L22.338,21.702L22.395,21.666L22.453,21.629L22.511,21.593L22.569,21.558L22.627,21.523L22.686,21.488L22.744,21.453L22.803,21.419L22.863,21.385L22.922,21.351L22.982,21.318L23.042,21.285L23.102,21.253L23.162,21.22L23.223,21.189L23.283,21.157L23.344,21.126L23.406,21.095L23.467,21.065L23.529,21.035L23.59,21.005L23.653,20.976L23.715,20.947L23.777,20.918L23.84,20.89L23.903,20.862L23.966,20.835L24.029,20.808L24.093,20.781L24.156,20.755L24.22,20.729L24.284,20.703L24.349,20.678L24.413,20.653L24.478,20.629L24.542,20.605L24.608,20.581L24.673,20.558L24.738,20.535L24.804,20.512L24.869,20.49L24.935,20.468L25.001,20.447L25.068,20.426L25.134,20.406L25.201,20.385L25.268,20.366L25.335,20.346L25.402,20.327L25.469,20.309L25.537,20.291L25.604,20.273L25.672,20.256L25.74,20.239L25.808,20.222L25.876,20.206L25.945,20.19L26.013,20.175L26.082,20.16L26.151,20.146L26.22,20.132L26.289,20.118L26.359,20.105L26.428,20.092L26.498,20.08L26.568,20.068L26.637,20.057L26.707,20.046L26.778,20.035L26.848,20.025L26.918,20.015L26.989,20.006L27.06,19.997L27.13,19.989L27.201,19.981L27.272,19.973L27.344,19.966L27.415,19.959L27.486,19.953L27.558,19.947L27.63,19.942L27.701,19.937L27.773,19.932L27.845,19.929L27.917,19.925L27.989,19.922L28.062,19.919L28.134,19.917L28.206,19.915L28.279,19.914L28.352,19.913L28.424,19.913L28.494,19.913ZM28.384,23.913L28.336,23.914L28.289,23.915L28.242,23.916L28.195,23.917L28.148,23.919L28.101,23.921L28.054,23.923L28.007,23.926L27.961,23.929L27.914,23.932L27.868,23.935L27.821,23.939L27.775,23.943L27.729,23.947L27.683,23.952L27.637,23.957L27.591,23.962L27.545,23.967L27.5,23.973L27.454,23.979L27.408,23.985L27.363,23.992L27.318,23.999L27.272,24.006L27.227,24.013L27.182,24.021L27.137,24.029L27.093,24.037L27.048,24.046L27.003,24.054L26.959,24.064L26.914,24.073L26.87,24.082L26.826,24.092L26.782,24.102L26.738,24.113L26.694,24.123L26.65,24.134L26.607,24.145L26.563,24.157L26.52,24.168L26.476,24.18L26.433,24.193L26.39,24.205L26.347,24.218L26.304,24.231L26.261,24.244L26.218,24.257L26.176,24.271L26.133,24.285L26.091,24.299L26.049,24.314L26.007,24.329L25.965,24.344L25.923,24.359L25.881,24.374L25.84,24.39L25.798,24.406L25.757,24.422L25.715,24.439L25.674,24.456L25.633,24.473L25.592,24.49L25.552,24.507L25.511,24.525L25.47,24.543L25.43,24.561L25.39,24.579L25.35,24.598L25.31,24.617L25.27,24.636L25.23,24.656L25.19,24.675L25.151,24.695L25.112,24.715L25.072,24.735L25.033,24.756L24.994,24.777L24.956,24.798L24.917,24.819L24.878,24.84L24.84,24.862L24.802,24.884L24.764,24.906L24.726,24.928L24.688,24.951L24.65,24.974L24.613,24.997L24.575,25.02L24.538,25.043L24.501,25.067L24.464,25.091L24.427,25.115L24.391,25.139L24.354,25.164L24.318,25.189L24.282,25.214L24.246,25.239L24.21,25.264L24.174,25.29L24.139,25.316L24.103,25.342L24.068,25.368L24.033,25.394L23.998,25.421L23.964,25.448L23.929,25.475L23.895,25.502L23.86,25.53L23.826,25.557L23.793,25.585L23.759,25.613L23.725,25.641L23.692,25.67L23.659,25.699L23.626,25.727L23.593,25.756L23.56,25.786L23.528,25.815L23.495,25.845L23.463,25.875L23.431,25.905L23.399,25.935L23.368,25.965L23.336,25.996L23.305,26.027L23.274,26.058L23.243,26.089L23.212,26.12L23.182,26.151L23.152,26.183L23.122,26.215L23.092,26.247L23.062,26.279L23.032,26.312L23.003,26.344L22.974,26.377L22.945,26.41L22.916,26.443L22.887,26.476L22.859,26.51L22.831,26.543L22.803,26.577L22.775,26.611L22.748,26.645L22.72,26.68L22.693,26.714L22.666,26.749L22.639,26.783L22.613,26.818L22.586,26.853L22.56,26.889L22.534,26.924L22.509,26.96L22.483,26.996L22.458,27.031L22.433,27.068L22.408,27.104L22.383,27.14L22.359,27.177L22.334,27.213L22.31,27.25L22.287,27.287L22.263,27.324L22.24,27.362L22.217,27.399L22.194,27.437L22.171,27.474L22.149,27.512L22.126,27.55L22.104,27.588L22.082,27.627L22.061,27.665L22.04,27.704L22.018,27.742L21.998,27.781L21.977,27.82L21.956,27.859L21.936,27.899L21.916,27.938L21.897,27.978L21.877,28.017L21.858,28.057L21.839,28.097L21.82,28.137L21.802,28.177L21.783,28.218L21.765,28.258L21.747,28.299L21.73,28.339L21.712,28.38L21.695,28.421L21.678,28.462L21.662,28.503L21.645,28.545L21.629,28.586L21.613,28.628L21.598,28.669L21.582,28.711L21.567,28.753L21.552,28.795L21.538,28.837L21.523,28.88L21.509,28.922L21.495,28.965L21.482,29.007L21.468,29.05L21.455,29.093L21.442,29.136L21.43,29.179L21.418,29.222L21.405,29.265L21.394,29.309L21.382,29.352L21.371,29.396L21.36,29.44L21.349,29.484L21.338,29.528L21.328,29.572L21.318,29.616L21.309,29.66L21.299,29.704L21.29,29.749L21.281,29.793L21.272,29.838L21.264,29.883L21.256,29.928L21.248,29.973L21.241,30.018L21.233,30.063L21.226,30.108L21.22,30.154L21.213,30.199L21.207,30.245L21.201,30.29L21.196,30.336L21.19,30.382L21.185,30.428L21.18,30.474L21.176,30.52L21.172,30.567L21.168,30.613L21.164,30.659L21.161,30.706L21.158,30.753L21.155,30.799L21.153,30.846L21.151,30.893L21.149,30.94L21.147,30.987L21.146,31.034L21.145,31.082L21.144,31.129L21.144,31.18L20.881,86.188L20.881,86.238L20.881,86.286L20.882,86.333L20.883,86.38L20.884,86.427L20.885,86.475L20.887,86.522L20.889,86.568L20.891,86.615L20.894,86.662L20.897,86.709L20.9,86.755L20.903,86.802L20.907,86.848L20.911,86.894L20.916,86.941L20.92,86.987L20.925,87.033L20.93,87.079L20.936,87.124L20.941,87.17L20.947,87.216L20.954,87.261L20.96,87.307L20.967,87.352L20.974,87.397L20.982,87.442L20.989,87.487L20.997,87.532L21.006,87.577L21.014,87.622L21.023,87.666L21.032,87.711L21.041,87.755L21.051,87.8L21.061,87.844L21.071,87.888L21.081,87.932L21.092,87.976L21.103,88.02L21.114,88.063L21.125,88.107L21.137,88.15L21.149,88.194L21.161,88.237L21.174,88.28L21.186,88.323L21.199,88.366L21.212,88.409L21.226,88.451L21.24,88.494L21.254,88.536L21.268,88.579L21.282,88.621L21.297,88.663L21.312,88.705L21.327,88.747L21.343,88.789L21.359,88.83L21.375,88.872L21.391,88.913L21.407,88.954L21.424,88.996L21.441,89.037L21.458,89.077L21.476,89.118L21.494,89.159L21.511,89.199L21.53,89.24L21.548,89.28L21.567,89.32L21.586,89.36L21.605,89.4L21.624,89.44L21.644,89.479L21.663,89.519L21.684,89.558L21.704,89.597L21.724,89.637L21.745,89.676L21.766,89.714L21.787,89.753L21.809,89.791L21.83,89.83L21.852,89.868L21.874,89.906L21.897,89.944L21.919,89.982L21.942,90.02L21.965,90.057L21.988,90.094L22.012,90.132L22.035,90.169L22.059,90.206L22.083,90.242L22.108,90.279L22.132,90.315L22.157,90.352L22.182,90.388L22.207,90.424L22.233,90.46L22.258,90.495L22.284,90.531L22.31,90.566L22.336,90.602L22.363,90.637L22.389,90.671L22.416,90.706L22.443,90.741L22.47,90.775L22.498,90.809L22.526,90.843L22.553,90.877L22.581,90.911L22.61,90.945L22.638,90.978L22.667,91.011L22.696,91.044L22.725,91.077L22.754,91.11L22.783,91.142L22.813,91.175L22.843,91.207L22.873,91.239L22.903,91.27L22.933,91.302L22.964,91.333L22.995,91.365L23.026,91.396L23.057,91.427L23.088,91.457L23.119,91.488L23.151,91.518L23.183,91.548L23.215,91.578L23.247,91.608L23.28,91.637L23.312,91.667L23.345,91.696L23.378,91.725L23.411,91.754L23.444,91.782L23.478,91.811L23.511,91.839L23.545,91.867L23.579,91.895L23.613,91.922L23.647,91.95L23.682,91.977L23.716,92.004L23.751,92.031L23.786,92.057L23.821,92.083L23.856,92.11L23.892,92.136L23.928,92.161L23.963,92.187L23.999,92.212L24.035,92.237L24.071,92.262L24.108,92.287L24.144,92.311L24.181,92.335L24.218,92.359L24.255,92.383L24.292,92.407L24.329,92.43L24.367,92.453L24.404,92.476L24.442,92.499L24.48,92.521L24.518,92.544L24.556,92.566L24.594,92.588L24.633,92.609L24.671,92.631L24.71,92.652L24.749,92.673L24.788,92.693L24.827,92.714L24.866,92.734L24.906,92.754L24.945,92.774L24.985,92.793L25.024,92.812L25.064,92.831L25.104,92.85L25.145,92.869L25.185,92.887L25.225,92.905L25.266,92.923L25.307,92.941L25.348,92.958L25.388,92.975L25.43,92.992L25.471,93.009L25.512,93.025L25.553,93.041L25.595,93.057L25.637,93.073L25.679,93.088L25.72,93.103L25.763,93.118L25.805,93.133L25.847,93.147L25.889,93.161L25.932,93.175L25.975,93.189L26.017,93.202L26.06,93.215L26.103,93.228L26.146,93.241L26.189,93.253L26.233,93.265L26.276,93.277L26.32,93.289L26.363,93.3L26.407,93.311L26.451,93.322L26.495,93.332L26.539,93.343L26.583,93.353L26.627,93.362L26.672,93.372L26.716,93.381L26.761,93.39L26.805,93.399L26.85,93.407L26.895,93.415L26.94,93.423L26.985,93.431L27.03,93.438L27.076,93.445L27.121,93.452L27.167,93.458L27.212,93.464L27.258,93.47L27.303,93.476L27.35,93.481L27.395,93.486L27.441,93.491L27.488,93.495L27.534,93.5L27.58,93.504L27.627,93.507L27.673,93.511L27.72,93.514L27.767,93.516L27.813,93.519L27.86,93.521L27.908,93.523L27.955,93.525L28.002,93.526L28.049,93.527L28.096,93.528L28.146,93.528L83.161,93.788L83.212,93.788L83.259,93.788L83.306,93.787L83.353,93.787L83.401,93.785L83.448,93.784L83.495,93.782L83.541,93.78L83.588,93.778L83.635,93.776L83.681,93.773L83.728,93.77L83.774,93.766L83.82,93.762L83.867,93.758L83.913,93.754L83.959,93.749L84.005,93.745L84.051,93.739L84.096,93.734L84.142,93.728L84.187,93.722L84.233,93.716L84.278,93.709L84.323,93.703L84.369,93.696L84.414,93.688L84.459,93.681L84.504,93.673L84.548,93.664L84.593,93.656L84.638,93.647L84.682,93.638L84.726,93.629L84.771,93.619L84.815,93.61L84.859,93.599L84.903,93.589L84.947,93.579L84.99,93.568L85.034,93.557L85.078,93.545L85.121,93.533L85.164,93.522L85.207,93.509L85.25,93.497L85.294,93.484L85.336,93.471L85.379,93.458L85.422,93.445L85.464,93.431L85.507,93.417L85.549,93.403L85.591,93.388L85.633,93.374L85.675,93.359L85.717,93.343L85.759,93.328L85.801,93.312L85.842,93.296L85.883,93.28L85.925,93.264L85.966,93.247L86.007,93.23L86.048,93.213L86.088,93.195L86.129,93.178L86.17,93.16L86.21,93.141L86.25,93.123L86.29,93.104L86.33,93.086L86.37,93.067L86.41,93.047L86.449,93.028L86.489,93.008L86.528,92.988L86.567,92.967L86.607,92.947L86.645,92.926L86.684,92.905L86.723,92.884L86.761,92.863L86.8,92.841L86.838,92.819L86.876,92.797L86.914,92.775L86.952,92.752L86.989,92.729L87.027,92.706L87.064,92.683L87.102,92.66L87.139,92.636L87.176,92.612L87.212,92.588L87.249,92.564L87.285,92.539L87.322,92.515L87.358,92.49L87.394,92.464L87.43,92.439L87.465,92.413L87.501,92.388L87.536,92.362L87.571,92.335L87.607,92.309L87.641,92.282L87.676,92.255L87.711,92.228L87.745,92.201L87.779,92.174L87.813,92.146L87.847,92.118L87.881,92.09L87.915,92.062L87.948,92.034L87.981,92.005L88.014,91.976L88.047,91.947L88.08,91.918L88.112,91.888L88.145,91.859L88.177,91.829L88.209,91.799L88.241,91.769L88.272,91.738L88.303,91.708L88.335,91.677L88.366,91.646L88.397,91.615L88.427,91.584L88.458,91.552L88.488,91.52L88.518,91.489L88.548,91.457L88.578,91.424L88.608,91.392L88.637,91.359L88.666,91.327L88.695,91.294L88.724,91.261L88.753,91.227L88.781,91.194L88.809,91.16L88.837,91.127L88.865,91.093L88.893,91.059L88.92,91.024L88.947,90.99L88.974,90.955L89.001,90.92L89.028,90.885L89.054,90.85L89.08,90.815L89.106,90.78L89.132,90.744L89.157,90.708L89.183,90.672L89.208,90.636L89.233,90.6L89.257,90.564L89.282,90.527L89.306,90.49L89.33,90.454L89.354,90.417L89.377,90.379L89.401,90.342L89.424,90.305L89.447,90.267L89.47,90.23L89.492,90.192L89.514,90.154L89.536,90.115L89.558,90.077L89.58,90.039L89.601,90L89.622,89.961L89.643,89.923L89.664,89.884L89.684,89.844L89.704,89.805L89.724,89.766L89.744,89.726L89.764,89.687L89.783,89.647L89.802,89.607L89.821,89.567L89.839,89.526L89.858,89.486L89.876,89.446L89.894,89.405L89.911,89.364L89.929,89.323L89.946,89.282L89.963,89.241L89.979,89.2L89.996,89.159L90.012,89.117L90.028,89.076L90.043,89.034L90.059,88.992L90.074,88.95L90.089,88.908L90.103,88.866L90.118,88.824L90.132,88.781L90.146,88.739L90.159,88.696L90.173,88.653L90.186,88.61L90.199,88.568L90.211,88.524L90.224,88.481L90.236,88.438L90.248,88.394L90.259,88.351L90.271,88.307L90.282,88.263L90.293,88.22L90.303,88.176L90.313,88.132L90.323,88.087L90.333,88.043L90.342,87.999L90.352,87.954L90.361,87.91L90.369,87.865L90.378,87.82L90.386,87.775L90.394,87.73L90.401,87.685L90.408,87.64L90.415,87.594L90.422,87.549L90.429,87.504L90.435,87.458L90.441,87.412L90.446,87.366L90.452,87.32L90.457,87.274L90.461,87.228L90.466,87.182L90.47,87.136L90.474,87.089L90.478,87.043L90.481,86.996L90.484,86.95L90.487,86.903L90.489,86.856L90.491,86.809L90.493,86.762L90.495,86.715L90.496,86.667L90.497,86.62L90.498,86.573L90.498,86.522L90.76,31.51L90.76,31.459L90.76,31.412L90.759,31.364L90.759,31.317L90.758,31.27L90.756,31.223L90.754,31.176L90.752,31.129L90.75,31.083L90.748,31.036L90.745,30.989L90.742,30.943L90.738,30.897L90.734,30.85L90.73,30.804L90.726,30.758L90.722,30.712L90.717,30.666L90.712,30.62L90.706,30.575L90.7,30.529L90.694,30.483L90.688,30.438L90.682,30.393L90.675,30.347L90.668,30.302L90.66,30.257L90.653,30.212L90.645,30.167L90.637,30.123L90.628,30.078L90.619,30.033L90.61,29.989L90.601,29.945L90.592,29.9L90.582,29.856L90.572,29.812L90.561,29.768L90.551,29.725L90.54,29.681L90.529,29.637L90.517,29.594L90.506,29.55L90.494,29.507L90.482,29.464L90.469,29.421L90.457,29.378L90.444,29.335L90.43,29.292L90.417,29.249L90.403,29.207L90.389,29.164L90.375,29.122L90.361,29.08L90.346,29.038L90.331,28.996L90.316,28.954L90.3,28.912L90.284,28.871L90.268,28.829L90.252,28.788L90.236,28.747L90.219,28.706L90.202,28.665L90.185,28.624L90.167,28.583L90.15,28.542L90.132,28.502L90.114,28.461L90.095,28.421L90.077,28.381L90.058,28.341L90.039,28.301L90.019,28.262L90,28.222L89.98,28.182L89.96,28.143L89.94,28.104L89.919,28.065L89.898,28.026L89.877,27.987L89.856,27.949L89.835,27.91L89.813,27.872L89.791,27.833L89.769,27.795L89.747,27.757L89.724,27.72L89.701,27.682L89.679,27.644L89.655,27.607L89.632,27.57L89.608,27.533L89.584,27.496L89.56,27.459L89.536,27.423L89.511,27.386L89.487,27.35L89.462,27.314L89.437,27.278L89.411,27.242L89.386,27.206L89.36,27.171L89.334,27.135L89.308,27.1L89.281,27.065L89.254,27.03L89.228,26.995L89.201,26.961L89.173,26.926L89.146,26.892L89.118,26.858L89.09,26.824L89.062,26.791L89.034,26.757L89.006,26.724L88.977,26.69L88.948,26.657L88.919,26.624L88.89,26.592L88.86,26.559L88.831,26.527L88.801,26.495L88.771,26.463L88.741,26.431L88.71,26.399L88.68,26.368L88.649,26.337L88.618,26.306L88.587,26.275L88.556,26.244L88.524,26.214L88.492,26.183L88.461,26.153L88.429,26.123L88.396,26.093L88.364,26.064L88.331,26.034L88.299,26.005L88.266,25.976L88.233,25.947L88.199,25.919L88.166,25.89L88.132,25.862L88.098,25.834L88.064,25.806L88.03,25.779L87.996,25.751L87.962,25.724L87.927,25.697L87.892,25.671L87.857,25.644L87.822,25.618L87.787,25.591L87.751,25.565L87.716,25.54L87.68,25.514L87.644,25.489L87.608,25.464L87.572,25.439L87.535,25.414L87.499,25.39L87.462,25.365L87.425,25.341L87.388,25.318L87.351,25.294L87.314,25.271L87.277,25.247L87.239,25.225L87.201,25.202L87.163,25.179L87.125,25.157L87.087,25.135L87.049,25.113L87.011,25.092L86.972,25.07L86.933,25.049L86.894,25.028L86.855,25.008L86.816,24.987L86.777,24.967L86.738,24.947L86.698,24.927L86.658,24.908L86.619,24.888L86.579,24.869L86.539,24.851L86.498,24.832L86.458,24.814L86.418,24.796L86.377,24.778L86.336,24.76L86.295,24.743L86.254,24.726L86.213,24.709L86.172,24.692L86.131,24.676L86.089,24.66L86.048,24.644L86.006,24.628L85.964,24.613L85.922,24.597L85.88,24.583L85.838,24.568L85.796,24.553L85.753,24.539L85.711,24.525L85.668,24.512L85.625,24.498L85.583,24.485L85.54,24.472L85.497,24.46L85.453,24.447L85.41,24.435L85.367,24.423L85.323,24.412L85.279,24.401L85.236,24.39L85.192,24.379L85.148,24.368L85.104,24.358L85.06,24.348L85.015,24.338L84.971,24.329L84.927,24.32L84.882,24.311L84.837,24.302L84.793,24.294L84.748,24.285L84.703,24.278L84.658,24.27L84.612,24.263L84.567,24.256L84.522,24.249L84.476,24.243L84.431,24.236L84.385,24.231L84.339,24.225L84.293,24.22L84.247,24.215L84.201,24.21L84.155,24.205L84.109,24.201L84.062,24.197L84.016,24.194L83.969,24.19L83.923,24.187L83.876,24.184L83.829,24.182L83.782,24.18L83.735,24.178L83.688,24.176L83.641,24.175L83.594,24.174L83.546,24.173L83.496,24.173L28.482,23.913L28.431,23.913L28.384,23.913Z" style="fill:white;"/>
        <path d="M63.3,108.008C58.712,110.313 53.124,108.462 50.818,103.874L26.134,54.696C23.831,50.109 25.683,44.521 30.273,42.218L79.444,17.534C84.034,15.23 89.625,17.084 91.927,21.674L116.614,70.844C118.917,75.436 117.064,81.023 112.471,83.329L63.3,108.008Z" style="fill:rgb(251,176,64);fill-rule:nonzero;"/>
        <path d="M83.701,14.544L83.769,14.545L83.838,14.546L83.906,14.548L83.974,14.55L84.043,14.552L84.111,14.555L84.179,14.558L84.247,14.562L84.315,14.566L84.384,14.571L84.452,14.575L84.52,14.581L84.587,14.586L84.655,14.593L84.723,14.599L84.791,14.606L84.858,14.613L84.926,14.621L84.994,14.629L85.061,14.638L85.128,14.647L85.196,14.656L85.263,14.666L85.33,14.676L85.397,14.687L85.464,14.697L85.531,14.709L85.598,14.721L85.665,14.733L85.732,14.745L85.798,14.758L85.865,14.772L85.931,14.785L85.997,14.799L86.064,14.814L86.13,14.829L86.196,14.844L86.262,14.86L86.328,14.876L86.393,14.892L86.459,14.909L86.524,14.927L86.59,14.944L86.655,14.962L86.72,14.981L86.785,14.999L86.85,15.019L86.915,15.038L86.98,15.058L87.044,15.079L87.109,15.099L87.173,15.12L87.237,15.142L87.301,15.164L87.365,15.186L87.429,15.209L87.493,15.232L87.556,15.255L87.62,15.279L87.683,15.303L87.746,15.328L87.809,15.353L87.872,15.378L87.935,15.404L87.997,15.43L88.06,15.456L88.122,15.483L88.184,15.51L88.246,15.538L88.308,15.566L88.369,15.594L88.431,15.622L88.492,15.652L88.553,15.681L88.614,15.711L88.675,15.741L88.735,15.771L88.796,15.802L88.856,15.834L88.916,15.865L88.976,15.897L89.036,15.93L89.095,15.962L89.155,15.995L89.214,16.029L89.273,16.063L89.332,16.097L89.391,16.131L89.449,16.166L89.507,16.202L89.565,16.237L89.623,16.273L89.681,16.31L89.738,16.346L89.796,16.383L89.853,16.421L89.909,16.459L89.966,16.497L90.022,16.535L90.079,16.574L90.135,16.613L90.19,16.653L90.246,16.693L90.301,16.733L90.357,16.774L90.411,16.815L90.466,16.856L90.521,16.898L90.575,16.94L90.629,16.982L90.682,17.025L90.736,17.068L90.789,17.112L90.842,17.156L90.895,17.2L90.948,17.244L91,17.289L91.052,17.334L91.104,17.38L91.155,17.426L91.207,17.472L91.258,17.518L91.309,17.565L91.359,17.612L91.41,17.66L91.46,17.708L91.509,17.756L91.559,17.805L91.608,17.854L91.657,17.903L91.706,17.953L91.754,18.003L91.802,18.053L91.85,18.103L91.898,18.154L91.945,18.206L91.992,18.257L92.039,18.309L92.085,18.362L92.131,18.414L92.177,18.467L92.223,18.52L92.268,18.574L92.313,18.628L92.357,18.682L92.402,18.737L92.446,18.791L92.489,18.847L92.533,18.902L92.576,18.958L92.619,19.014L92.661,19.071L92.704,19.128L92.745,19.185L92.787,19.242L92.828,19.3L92.869,19.358L92.909,19.416L92.95,19.475L92.99,19.534L93.029,19.593L93.068,19.653L93.107,19.713L93.146,19.773L93.184,19.833L93.222,19.894L93.259,19.955L93.297,20.017L93.333,20.079L93.37,20.141L93.406,20.203L93.442,20.266L93.477,20.329L93.512,20.392L93.547,20.455L93.581,20.519L93.615,20.583L93.649,20.648L93.682,20.712L93.713,20.774L118.403,69.95L118.434,70.013L118.466,70.078L118.498,70.143L118.529,70.209L118.559,70.275L118.59,70.34L118.619,70.406L118.649,70.472L118.677,70.538L118.706,70.605L118.734,70.671L118.761,70.737L118.788,70.804L118.815,70.871L118.841,70.937L118.867,71.004L118.892,71.071L118.917,71.138L118.941,71.205L118.965,71.272L118.988,71.339L119.011,71.407L119.034,71.474L119.056,71.542L119.078,71.609L119.099,71.677L119.12,71.745L119.14,71.812L119.16,71.88L119.179,71.948L119.198,72.016L119.217,72.084L119.235,72.152L119.253,72.22L119.27,72.288L119.287,72.357L119.303,72.425L119.319,72.493L119.334,72.561L119.349,72.63L119.364,72.698L119.378,72.767L119.392,72.835L119.405,72.904L119.418,72.972L119.43,73.041L119.442,73.11L119.454,73.178L119.465,73.247L119.476,73.316L119.486,73.384L119.496,73.453L119.505,73.522L119.514,73.59L119.522,73.659L119.531,73.728L119.538,73.797L119.545,73.865L119.552,73.934L119.559,74.003L119.565,74.072L119.57,74.141L119.575,74.209L119.58,74.278L119.584,74.347L119.588,74.415L119.591,74.484L119.594,74.553L119.597,74.621L119.599,74.69L119.601,74.759L119.602,74.827L119.603,74.896L119.604,74.965L119.604,75.033L119.603,75.101L119.602,75.17L119.601,75.238L119.6,75.307L119.598,75.375L119.595,75.443L119.592,75.512L119.589,75.58L119.585,75.648L119.581,75.716L119.577,75.784L119.572,75.852L119.567,75.92L119.561,75.988L119.555,76.056L119.548,76.124L119.541,76.191L119.534,76.259L119.526,76.327L119.518,76.394L119.51,76.462L119.501,76.529L119.491,76.596L119.482,76.664L119.471,76.731L119.461,76.798L119.45,76.865L119.438,76.932L119.427,76.999L119.415,77.065L119.402,77.132L119.389,77.199L119.376,77.265L119.362,77.332L119.348,77.398L119.333,77.464L119.318,77.53L119.303,77.596L119.287,77.662L119.271,77.728L119.255,77.794L119.238,77.859L119.221,77.925L119.203,77.99L119.185,78.055L119.167,78.121L119.148,78.186L119.129,78.251L119.109,78.315L119.089,78.38L119.069,78.445L119.048,78.509L119.027,78.573L119.005,78.638L118.983,78.702L118.961,78.766L118.938,78.83L118.915,78.893L118.892,78.957L118.868,79.02L118.844,79.083L118.819,79.147L118.794,79.21L118.769,79.272L118.744,79.335L118.717,79.398L118.691,79.46L118.664,79.522L118.637,79.584L118.609,79.646L118.581,79.708L118.553,79.77L118.524,79.831L118.495,79.892L118.466,79.953L118.436,80.014L118.406,80.075L118.375,80.136L118.345,80.196L118.313,80.257L118.282,80.317L118.25,80.377L118.217,80.436L118.185,80.496L118.151,80.555L118.118,80.614L118.084,80.673L118.05,80.732L118.015,80.791L117.98,80.849L117.945,80.908L117.909,80.966L117.873,81.023L117.837,81.081L117.8,81.139L117.763,81.196L117.726,81.253L117.688,81.31L117.65,81.366L117.611,81.423L117.572,81.479L117.533,81.535L117.494,81.591L117.454,81.646L117.413,81.702L117.373,81.757L117.332,81.812L117.29,81.867L117.249,81.921L117.207,81.975L117.164,82.029L117.121,82.083L117.078,82.136L117.035,82.19L116.991,82.243L116.947,82.296L116.902,82.348L116.857,82.4L116.812,82.453L116.767,82.504L116.721,82.556L116.675,82.607L116.628,82.658L116.581,82.709L116.534,82.76L116.486,82.81L116.438,82.86L116.39,82.91L116.342,82.959L116.293,83.009L116.243,83.057L116.194,83.106L116.144,83.154L116.093,83.203L116.043,83.251L115.992,83.298L115.94,83.345L115.889,83.392L115.837,83.439L115.785,83.486L115.732,83.532L115.679,83.578L115.626,83.623L115.572,83.668L115.518,83.713L115.464,83.758L115.409,83.802L115.355,83.846L115.299,83.89L115.244,83.934L115.188,83.977L115.132,84.02L115.075,84.062L115.019,84.104L114.961,84.146L114.904,84.188L114.846,84.229L114.788,84.27L114.73,84.31L114.671,84.351L114.612,84.391L114.553,84.43L114.493,84.469L114.433,84.508L114.373,84.547L114.312,84.585L114.252,84.623L114.19,84.661L114.129,84.698L114.067,84.735L114.005,84.771L113.943,84.807L113.88,84.843L113.817,84.878L113.754,84.914L113.69,84.948L113.627,84.983L113.562,85.017L113.498,85.05L113.433,85.083L113.371,85.115L64.195,109.797L64.133,109.828L64.067,109.86L64.002,109.891L63.936,109.922L63.871,109.953L63.805,109.983L63.739,110.013L63.673,110.042L63.607,110.071L63.541,110.1L63.475,110.127L63.408,110.155L63.342,110.182L63.275,110.209L63.209,110.235L63.142,110.261L63.075,110.286L63.008,110.311L62.941,110.335L62.874,110.359L62.806,110.382L62.739,110.405L62.672,110.428L62.604,110.45L62.537,110.472L62.469,110.493L62.402,110.514L62.334,110.534L62.266,110.554L62.198,110.574L62.13,110.593L62.062,110.611L61.994,110.629L61.926,110.647L61.858,110.664L61.79,110.681L61.722,110.697L61.653,110.713L61.585,110.729L61.517,110.744L61.448,110.759L61.38,110.773L61.311,110.787L61.243,110.8L61.174,110.813L61.106,110.825L61.037,110.837L60.969,110.849L60.9,110.86L60.831,110.871L60.763,110.881L60.694,110.891L60.625,110.9L60.556,110.909L60.488,110.918L60.419,110.926L60.35,110.934L60.282,110.941L60.213,110.948L60.144,110.954L60.075,110.96L60.007,110.966L59.938,110.971L59.869,110.975L59.8,110.98L59.732,110.984L59.663,110.987L59.594,110.99L59.526,110.993L59.457,110.995L59.388,110.997L59.32,110.998L59.251,110.999L59.183,110.999L59.114,110.999L59.046,110.999L58.977,110.998L58.909,110.997L58.841,110.996L58.772,110.994L58.704,110.991L58.636,110.988L58.568,110.985L58.5,110.982L58.431,110.978L58.363,110.973L58.295,110.968L58.227,110.963L58.159,110.957L58.092,110.951L58.024,110.945L57.956,110.938L57.889,110.93L57.821,110.923L57.753,110.915L57.686,110.906L57.619,110.897L57.551,110.888L57.484,110.878L57.417,110.868L57.35,110.858L57.283,110.847L57.216,110.835L57.149,110.824L57.082,110.811L57.016,110.799L56.949,110.786L56.883,110.773L56.816,110.759L56.75,110.745L56.684,110.73L56.618,110.716L56.552,110.7L56.486,110.685L56.42,110.669L56.354,110.652L56.288,110.635L56.223,110.618L56.158,110.6L56.092,110.582L56.027,110.564L55.962,110.545L55.897,110.526L55.832,110.506L55.768,110.487L55.703,110.466L55.639,110.446L55.574,110.424L55.51,110.403L55.446,110.381L55.382,110.359L55.318,110.336L55.255,110.313L55.191,110.29L55.128,110.266L55.065,110.242L55.001,110.217L54.938,110.193L54.876,110.167L54.813,110.142L54.75,110.116L54.688,110.089L54.626,110.062L54.564,110.035L54.502,110.008L54.44,109.98L54.378,109.952L54.317,109.923L54.256,109.894L54.195,109.865L54.134,109.835L54.073,109.805L54.012,109.774L53.952,109.743L53.892,109.712L53.831,109.68L53.772,109.649L53.712,109.616L53.652,109.583L53.593,109.55L53.534,109.517L53.475,109.483L53.416,109.449L53.357,109.415L53.299,109.38L53.24,109.344L53.183,109.309L53.125,109.273L53.067,109.236L53.009,109.2L52.952,109.163L52.895,109.125L52.838,109.088L52.782,109.05L52.725,109.011L52.669,108.972L52.613,108.933L52.557,108.893L52.502,108.854L52.446,108.813L52.391,108.773L52.336,108.732L52.282,108.69L52.227,108.649L52.173,108.607L52.119,108.564L52.065,108.522L52.012,108.479L51.958,108.435L51.905,108.391L51.852,108.347L51.8,108.303L51.747,108.258L51.695,108.213L51.644,108.167L51.592,108.122L51.541,108.075L51.49,108.029L51.439,107.982L51.388,107.935L51.338,107.887L51.288,107.839L51.238,107.791L51.189,107.743L51.139,107.694L51.09,107.644L51.042,107.595L50.993,107.545L50.945,107.495L50.897,107.444L50.85,107.393L50.802,107.342L50.755,107.29L50.709,107.239L50.662,107.186L50.616,107.134L50.57,107.081L50.525,107.028L50.479,106.974L50.434,106.92L50.39,106.866L50.345,106.812L50.301,106.757L50.258,106.702L50.214,106.646L50.171,106.59L50.128,106.534L50.086,106.478L50.043,106.421L50.002,106.364L49.96,106.306L49.919,106.249L49.878,106.191L49.837,106.132L49.797,106.074L49.757,106.015L49.717,105.956L49.678,105.896L49.639,105.836L49.601,105.776L49.562,105.715L49.525,105.655L49.487,105.594L49.45,105.532L49.413,105.47L49.376,105.408L49.34,105.346L49.304,105.283L49.269,105.221L49.234,105.157L49.199,105.094L49.165,105.03L49.131,104.966L49.097,104.902L49.064,104.837L49.032,104.774L24.345,55.59L24.314,55.528L24.282,55.463L24.251,55.398L24.22,55.332L24.189,55.266L24.159,55.201L24.129,55.135L24.1,55.069L24.071,55.003L24.042,54.937L24.015,54.87L23.987,54.804L23.96,54.737L23.933,54.671L23.907,54.604L23.882,54.537L23.856,54.471L23.832,54.404L23.807,54.337L23.783,54.269L23.76,54.202L23.737,54.135L23.714,54.068L23.692,54L23.671,53.933L23.649,53.865L23.629,53.797L23.608,53.73L23.588,53.662L23.569,53.594L23.55,53.526L23.531,53.458L23.513,53.39L23.496,53.322L23.478,53.254L23.462,53.186L23.445,53.117L23.429,53.049L23.414,52.981L23.399,52.912L23.384,52.844L23.37,52.776L23.356,52.707L23.343,52.639L23.33,52.57L23.318,52.502L23.306,52.433L23.294,52.364L23.283,52.296L23.272,52.227L23.262,52.158L23.252,52.09L23.243,52.021L23.234,51.952L23.225,51.884L23.217,51.815L23.21,51.746L23.202,51.677L23.196,51.609L23.189,51.54L23.183,51.471L23.178,51.403L23.173,51.334L23.168,51.265L23.164,51.196L23.16,51.128L23.156,51.059L23.153,50.99L23.151,50.922L23.149,50.853L23.147,50.784L23.146,50.716L23.145,50.647L23.144,50.579L23.144,50.51L23.144,50.442L23.145,50.373L23.146,50.305L23.148,50.237L23.15,50.168L23.152,50.1L23.155,50.032L23.159,49.964L23.162,49.896L23.166,49.827L23.171,49.759L23.176,49.691L23.181,49.623L23.187,49.556L23.193,49.488L23.199,49.42L23.206,49.352L23.213,49.285L23.221,49.217L23.229,49.15L23.238,49.082L23.247,49.015L23.256,48.948L23.266,48.88L23.276,48.813L23.287,48.746L23.298,48.679L23.309,48.612L23.321,48.545L23.333,48.479L23.345,48.412L23.358,48.345L23.372,48.279L23.385,48.213L23.399,48.146L23.414,48.08L23.429,48.014L23.444,47.948L23.46,47.882L23.476,47.816L23.492,47.751L23.509,47.685L23.526,47.619L23.544,47.554L23.562,47.489L23.581,47.424L23.599,47.359L23.619,47.294L23.638,47.229L23.658,47.164L23.678,47.1L23.699,47.035L23.72,46.971L23.742,46.907L23.764,46.843L23.786,46.779L23.809,46.715L23.832,46.651L23.855,46.588L23.879,46.524L23.903,46.461L23.927,46.398L23.952,46.335L23.978,46.272L24.003,46.21L24.029,46.147L24.056,46.085L24.083,46.023L24.11,45.961L24.137,45.899L24.165,45.837L24.194,45.775L24.222,45.714L24.251,45.653L24.281,45.591L24.31,45.53L24.341,45.47L24.371,45.409L24.402,45.349L24.433,45.288L24.465,45.228L24.497,45.168L24.529,45.109L24.562,45.049L24.595,44.99L24.628,44.931L24.662,44.872L24.696,44.813L24.731,44.754L24.766,44.696L24.801,44.637L24.837,44.579L24.873,44.522L24.909,44.464L24.946,44.407L24.983,44.349L25.02,44.292L25.058,44.235L25.096,44.179L25.135,44.122L25.174,44.066L25.213,44.01L25.252,43.954L25.292,43.899L25.333,43.844L25.373,43.788L25.414,43.734L25.456,43.679L25.497,43.624L25.539,43.57L25.582,43.516L25.625,43.463L25.668,43.409L25.711,43.356L25.755,43.303L25.799,43.25L25.843,43.197L25.888,43.145L25.933,43.093L25.979,43.041L26.025,42.99L26.071,42.938L26.118,42.887L26.164,42.836L26.212,42.786L26.259,42.736L26.307,42.686L26.355,42.636L26.404,42.586L26.453,42.537L26.502,42.488L26.552,42.44L26.602,42.391L26.652,42.343L26.703,42.295L26.754,42.248L26.805,42.2L26.856,42.153L26.908,42.107L26.961,42.06L27.013,42.014L27.066,41.968L27.119,41.923L27.173,41.877L27.227,41.833L27.281,41.788L27.336,41.744L27.391,41.7L27.446,41.656L27.501,41.612L27.557,41.569L27.613,41.526L27.67,41.484L27.726,41.442L27.784,41.4L27.841,41.358L27.899,41.317L27.957,41.276L28.015,41.236L28.074,41.196L28.133,41.156L28.192,41.116L28.252,41.077L28.312,41.038L28.372,40.999L28.432,40.961L28.493,40.923L28.554,40.886L28.616,40.849L28.677,40.812L28.739,40.775L28.802,40.739L28.864,40.703L28.927,40.668L28.991,40.633L29.054,40.598L29.118,40.564L29.182,40.53L29.246,40.496L29.311,40.463L29.373,40.432L78.55,15.745L78.612,15.714L78.677,15.682L78.743,15.651L78.808,15.619L78.874,15.589L78.94,15.559L79.006,15.529L79.072,15.5L79.138,15.471L79.204,15.442L79.27,15.414L79.337,15.387L79.403,15.36L79.47,15.333L79.537,15.307L79.603,15.281L79.67,15.256L79.737,15.231L79.804,15.207L79.871,15.183L79.939,15.16L80.006,15.137L80.073,15.114L80.141,15.092L80.208,15.07L80.276,15.049L80.344,15.028L80.412,15.008L80.479,14.988L80.547,14.969L80.615,14.95L80.683,14.931L80.751,14.913L80.819,14.895L80.888,14.878L80.956,14.861L81.024,14.845L81.092,14.829L81.161,14.813L81.229,14.798L81.298,14.784L81.366,14.77L81.434,14.756L81.503,14.743L81.572,14.73L81.64,14.717L81.709,14.705L81.777,14.694L81.846,14.683L81.915,14.672L81.983,14.662L82.052,14.652L82.121,14.643L82.19,14.634L82.258,14.625L82.327,14.617L82.396,14.609L82.465,14.602L82.533,14.595L82.602,14.589L82.671,14.583L82.74,14.577L82.809,14.572L82.877,14.568L82.946,14.563L83.015,14.56L83.083,14.556L83.152,14.553L83.221,14.551L83.289,14.548L83.358,14.547L83.427,14.545L83.495,14.544L83.564,14.544L83.632,14.544L83.701,14.544ZM83.58,18.544L83.535,18.544L83.491,18.545L83.447,18.546L83.403,18.547L83.358,18.548L83.314,18.55L83.27,18.552L83.226,18.554L83.181,18.556L83.137,18.559L83.093,18.562L83.048,18.566L83.004,18.569L82.96,18.573L82.916,18.577L82.871,18.581L82.827,18.586L82.783,18.591L82.739,18.596L82.694,18.602L82.65,18.607L82.606,18.614L82.562,18.62L82.517,18.626L82.473,18.633L82.429,18.64L82.385,18.648L82.341,18.656L82.296,18.664L82.252,18.672L82.208,18.68L82.164,18.689L82.12,18.698L82.076,18.708L82.032,18.717L81.988,18.727L81.944,18.738L81.9,18.748L81.856,18.759L81.812,18.77L81.768,18.782L81.724,18.793L81.681,18.805L81.637,18.817L81.593,18.83L81.549,18.843L81.506,18.856L81.462,18.869L81.418,18.883L81.375,18.897L81.331,18.911L81.288,18.926L81.244,18.941L81.201,18.956L81.157,18.971L81.114,18.987L81.071,19.003L81.027,19.019L80.984,19.036L80.941,19.053L80.898,19.07L80.855,19.088L80.812,19.105L80.769,19.124L80.726,19.142L80.683,19.161L80.64,19.18L80.597,19.199L80.554,19.219L80.512,19.239L80.469,19.259L80.426,19.279L80.384,19.3L80.338,19.323L31.173,44.004L31.128,44.027L31.085,44.049L31.043,44.071L31.002,44.093L30.96,44.115L30.919,44.138L30.878,44.16L30.837,44.183L30.796,44.207L30.756,44.23L30.716,44.254L30.676,44.277L30.636,44.302L30.596,44.326L30.557,44.35L30.518,44.375L30.479,44.4L30.44,44.425L30.402,44.451L30.363,44.476L30.325,44.502L30.287,44.528L30.25,44.554L30.212,44.58L30.175,44.607L30.138,44.634L30.101,44.661L30.064,44.688L30.028,44.715L29.992,44.743L29.956,44.771L29.92,44.799L29.884,44.827L29.849,44.855L29.814,44.884L29.779,44.913L29.744,44.941L29.71,44.971L29.676,45L29.642,45.029L29.608,45.059L29.574,45.089L29.541,45.119L29.507,45.149L29.474,45.18L29.442,45.21L29.409,45.241L29.377,45.272L29.345,45.303L29.313,45.335L29.281,45.366L29.249,45.398L29.218,45.43L29.187,45.462L29.156,45.494L29.126,45.526L29.095,45.559L29.065,45.591L29.035,45.624L29.005,45.657L28.976,45.69L28.947,45.724L28.917,45.757L28.889,45.791L28.86,45.825L28.832,45.859L28.803,45.893L28.775,45.927L28.748,45.962L28.72,45.997L28.693,46.031L28.666,46.066L28.639,46.101L28.612,46.137L28.586,46.172L28.559,46.207L28.533,46.243L28.508,46.279L28.482,46.315L28.457,46.351L28.432,46.387L28.407,46.424L28.382,46.46L28.358,46.497L28.334,46.534L28.31,46.571L28.286,46.608L28.263,46.645L28.239,46.682L28.216,46.72L28.194,46.758L28.171,46.795L28.149,46.833L28.127,46.871L28.105,46.909L28.083,46.948L28.062,46.986L28.041,47.025L28.02,47.063L27.999,47.102L27.979,47.141L27.958,47.18L27.938,47.219L27.919,47.258L27.899,47.297L27.88,47.337L27.861,47.376L27.842,47.416L27.823,47.456L27.805,47.496L27.787,47.536L27.769,47.576L27.752,47.616L27.734,47.656L27.717,47.697L27.7,47.737L27.684,47.778L27.667,47.818L27.651,47.859L27.635,47.9L27.62,47.941L27.604,47.982L27.589,48.023L27.574,48.064L27.559,48.106L27.545,48.147L27.531,48.188L27.517,48.23L27.503,48.272L27.49,48.313L27.477,48.355L27.464,48.397L27.451,48.439L27.439,48.481L27.426,48.523L27.415,48.565L27.403,48.608L27.391,48.65L27.38,48.692L27.369,48.735L27.359,48.777L27.348,48.82L27.338,48.863L27.328,48.905L27.319,48.948L27.309,48.991L27.3,49.034L27.291,49.077L27.283,49.12L27.274,49.163L27.266,49.206L27.258,49.249L27.251,49.293L27.243,49.336L27.236,49.379L27.229,49.423L27.223,49.466L27.217,49.509L27.21,49.553L27.205,49.597L27.199,49.64L27.194,49.684L27.189,49.727L27.184,49.771L27.18,49.815L27.176,49.859L27.172,49.902L27.168,49.946L27.164,49.99L27.161,50.034L27.158,50.078L27.156,50.122L27.153,50.166L27.151,50.21L27.15,50.254L27.148,50.298L27.147,50.342L27.146,50.386L27.145,50.43L27.144,50.474L27.144,50.519L27.144,50.563L27.144,50.607L27.145,50.651L27.146,50.695L27.147,50.74L27.148,50.784L27.15,50.828L27.152,50.872L27.154,50.916L27.157,50.961L27.159,51.005L27.162,51.049L27.166,51.093L27.169,51.138L27.173,51.182L27.177,51.226L27.182,51.27L27.186,51.315L27.191,51.359L27.196,51.403L27.202,51.447L27.208,51.492L27.214,51.536L27.22,51.58L27.227,51.624L27.234,51.668L27.241,51.713L27.248,51.757L27.256,51.801L27.264,51.845L27.272,51.889L27.281,51.933L27.29,51.977L27.299,52.021L27.308,52.065L27.318,52.109L27.328,52.153L27.338,52.197L27.348,52.241L27.359,52.285L27.37,52.329L27.382,52.373L27.393,52.417L27.405,52.46L27.418,52.504L27.43,52.548L27.443,52.592L27.456,52.635L27.469,52.679L27.483,52.722L27.497,52.766L27.511,52.81L27.526,52.853L27.541,52.896L27.556,52.94L27.571,52.983L27.587,53.027L27.603,53.07L27.619,53.113L27.636,53.156L27.653,53.199L27.67,53.243L27.688,53.286L27.706,53.329L27.724,53.372L27.742,53.415L27.761,53.457L27.78,53.5L27.799,53.543L27.819,53.586L27.839,53.628L27.859,53.671L27.879,53.714L27.9,53.756L27.923,53.802L52.604,102.974L52.626,103.018L52.648,103.06L52.67,103.102L52.692,103.144L52.715,103.185L52.737,103.227L52.76,103.268L52.783,103.309L52.806,103.349L52.83,103.39L52.853,103.43L52.877,103.47L52.901,103.51L52.926,103.549L52.95,103.589L52.975,103.628L53,103.667L53.025,103.705L53.05,103.744L53.076,103.782L53.102,103.82L53.128,103.858L53.154,103.896L53.18,103.933L53.207,103.971L53.234,104.008L53.261,104.044L53.288,104.081L53.316,104.117L53.343,104.154L53.371,104.19L53.399,104.225L53.427,104.261L53.456,104.296L53.484,104.331L53.513,104.366L53.542,104.401L53.571,104.435L53.6,104.47L53.63,104.504L53.66,104.538L53.689,104.571L53.72,104.605L53.75,104.638L53.78,104.671L53.811,104.704L53.842,104.736L53.873,104.769L53.904,104.801L53.935,104.832L53.967,104.864L53.998,104.896L54.03,104.927L54.062,104.958L54.095,104.989L54.127,105.019L54.16,105.05L54.192,105.08L54.225,105.11L54.258,105.14L54.291,105.169L54.325,105.199L54.358,105.228L54.392,105.256L54.426,105.285L54.46,105.314L54.494,105.342L54.528,105.37L54.563,105.397L54.598,105.425L54.632,105.452L54.667,105.479L54.703,105.506L54.738,105.533L54.773,105.559L54.809,105.585L54.844,105.611L54.88,105.637L54.916,105.663L54.952,105.688L54.989,105.713L55.025,105.738L55.062,105.763L55.098,105.787L55.135,105.811L55.172,105.835L55.209,105.859L55.247,105.882L55.284,105.905L55.321,105.928L55.359,105.951L55.397,105.974L55.435,105.996L55.473,106.018L55.511,106.04L55.549,106.062L55.588,106.083L55.626,106.104L55.665,106.125L55.704,106.146L55.742,106.166L55.781,106.186L55.821,106.206L55.86,106.226L55.899,106.245L55.939,106.265L55.978,106.284L56.018,106.303L56.058,106.321L56.097,106.339L56.137,106.357L56.178,106.375L56.218,106.393L56.258,106.41L56.298,106.427L56.339,106.444L56.379,106.461L56.42,106.477L56.461,106.493L56.502,106.509L56.543,106.525L56.584,106.54L56.625,106.555L56.666,106.57L56.707,106.585L56.749,106.599L56.791,106.613L56.832,106.627L56.874,106.641L56.915,106.654L56.957,106.668L56.999,106.68L57.041,106.693L57.083,106.706L57.125,106.718L57.168,106.73L57.21,106.741L57.252,106.753L57.295,106.764L57.337,106.775L57.38,106.785L57.422,106.796L57.465,106.806L57.508,106.816L57.55,106.825L57.593,106.835L57.636,106.844L57.679,106.853L57.722,106.861L57.765,106.87L57.808,106.878L57.852,106.886L57.895,106.893L57.938,106.901L57.982,106.908L58.025,106.915L58.068,106.921L58.112,106.927L58.155,106.933L58.199,106.939L58.243,106.945L58.286,106.95L58.33,106.955L58.374,106.96L58.417,106.964L58.461,106.968L58.505,106.972L58.549,106.976L58.593,106.979L58.637,106.982L58.681,106.985L58.724,106.988L58.768,106.99L58.813,106.992L58.857,106.994L58.901,106.996L58.945,106.997L58.989,106.998L59.033,106.999L59.077,106.999L59.121,106.999L59.165,106.999L59.21,106.999L59.254,106.998L59.298,106.998L59.342,106.996L59.386,106.995L59.431,106.993L59.475,106.991L59.519,106.989L59.563,106.987L59.608,106.984L59.652,106.981L59.696,106.978L59.74,106.974L59.785,106.97L59.829,106.966L59.873,106.962L59.918,106.957L59.962,106.952L60.006,106.947L60.05,106.941L60.094,106.935L60.139,106.929L60.183,106.923L60.227,106.916L60.271,106.91L60.315,106.902L60.36,106.895L60.404,106.887L60.448,106.879L60.492,106.871L60.536,106.862L60.58,106.854L60.624,106.844L60.668,106.835L60.712,106.825L60.756,106.815L60.8,106.805L60.844,106.794L60.888,106.784L60.932,106.773L60.976,106.761L61.02,106.749L61.064,106.737L61.107,106.725L61.151,106.713L61.195,106.7L61.238,106.687L61.282,106.673L61.326,106.66L61.369,106.646L61.413,106.631L61.456,106.617L61.5,106.602L61.543,106.587L61.586,106.571L61.63,106.555L61.673,106.539L61.716,106.523L61.76,106.506L61.803,106.49L61.846,106.472L61.889,106.455L61.932,106.437L61.975,106.419L62.018,106.4L62.061,106.382L62.104,106.363L62.146,106.343L62.189,106.324L62.232,106.304L62.275,106.283L62.317,106.263L62.36,106.242L62.405,106.219L111.571,81.543L111.616,81.52L111.658,81.498L111.7,81.477L111.742,81.454L111.784,81.432L111.825,81.409L111.866,81.387L111.907,81.364L111.948,81.34L111.988,81.317L112.028,81.293L112.068,81.269L112.108,81.245L112.148,81.221L112.187,81.196L112.227,81.172L112.265,81.147L112.304,81.121L112.343,81.096L112.381,81.07L112.419,81.045L112.457,81.019L112.495,80.992L112.533,80.966L112.57,80.939L112.607,80.913L112.644,80.885L112.681,80.858L112.717,80.831L112.753,80.803L112.789,80.775L112.825,80.747L112.86,80.719L112.896,80.691L112.931,80.662L112.966,80.633L113.001,80.604L113.035,80.575L113.07,80.546L113.104,80.516L113.138,80.487L113.171,80.457L113.205,80.427L113.238,80.396L113.271,80.366L113.304,80.335L113.336,80.304L113.369,80.274L113.401,80.242L113.433,80.211L113.465,80.179L113.496,80.148L113.528,80.116L113.559,80.084L113.589,80.052L113.62,80.019L113.651,79.987L113.681,79.954L113.711,79.921L113.741,79.888L113.77,79.855L113.799,79.821L113.829,79.788L113.857,79.754L113.886,79.72L113.915,79.686L113.943,79.652L113.971,79.618L113.999,79.583L114.026,79.549L114.054,79.514L114.081,79.479L114.108,79.444L114.134,79.408L114.161,79.373L114.187,79.337L114.213,79.302L114.239,79.266L114.264,79.23L114.29,79.194L114.315,79.157L114.34,79.121L114.364,79.084L114.389,79.048L114.413,79.011L114.437,78.974L114.46,78.937L114.484,78.9L114.507,78.862L114.53,78.825L114.553,78.787L114.576,78.749L114.598,78.711L114.62,78.673L114.642,78.635L114.664,78.597L114.685,78.558L114.706,78.52L114.727,78.481L114.748,78.443L114.768,78.404L114.789,78.365L114.809,78.326L114.828,78.286L114.848,78.247L114.867,78.208L114.886,78.168L114.905,78.128L114.924,78.088L114.942,78.049L114.96,78.009L114.978,77.969L114.995,77.928L115.013,77.888L115.03,77.848L115.047,77.807L115.063,77.767L115.08,77.726L115.096,77.685L115.112,77.644L115.128,77.603L115.143,77.562L115.158,77.521L115.173,77.48L115.188,77.438L115.202,77.397L115.216,77.356L115.23,77.314L115.244,77.272L115.257,77.23L115.271,77.189L115.283,77.147L115.296,77.105L115.309,77.063L115.321,77.021L115.333,76.978L115.344,76.936L115.356,76.894L115.367,76.851L115.378,76.809L115.389,76.766L115.399,76.724L115.409,76.681L115.419,76.638L115.429,76.595L115.438,76.553L115.447,76.51L115.456,76.467L115.465,76.424L115.473,76.381L115.481,76.337L115.489,76.294L115.497,76.251L115.504,76.208L115.511,76.164L115.518,76.121L115.525,76.078L115.531,76.034L115.537,75.99L115.543,75.947L115.548,75.903L115.554,75.86L115.559,75.816L115.563,75.772L115.568,75.728L115.572,75.685L115.576,75.641L115.58,75.597L115.583,75.553L115.586,75.509L115.589,75.465L115.592,75.421L115.594,75.377L115.596,75.333L115.598,75.289L115.6,75.245L115.601,75.201L115.602,75.157L115.603,75.113L115.603,75.068L115.604,75.024L115.604,74.98L115.603,74.936L115.603,74.892L115.602,74.847L115.601,74.803L115.599,74.759L115.598,74.715L115.596,74.67L115.594,74.626L115.591,74.582L115.588,74.537L115.585,74.493L115.582,74.449L115.578,74.405L115.575,74.36L115.571,74.316L115.566,74.272L115.561,74.227L115.557,74.183L115.551,74.139L115.546,74.095L115.54,74.05L115.534,74.006L115.528,73.962L115.521,73.918L115.514,73.874L115.507,73.829L115.5,73.785L115.492,73.741L115.484,73.697L115.476,73.653L115.467,73.609L115.458,73.564L115.449,73.52L115.44,73.476L115.43,73.432L115.42,73.388L115.41,73.344L115.399,73.3L115.389,73.256L115.377,73.212L115.366,73.168L115.354,73.125L115.342,73.081L115.33,73.037L115.318,72.993L115.305,72.949L115.292,72.906L115.278,72.862L115.265,72.818L115.251,72.775L115.236,72.731L115.222,72.688L115.207,72.644L115.192,72.601L115.176,72.557L115.161,72.514L115.145,72.471L115.128,72.427L115.112,72.384L115.095,72.341L115.078,72.298L115.06,72.254L115.042,72.211L115.024,72.168L115.006,72.125L114.987,72.082L114.968,72.039L114.949,71.997L114.929,71.954L114.909,71.911L114.889,71.868L114.868,71.826L114.847,71.783L114.825,71.738L90.141,22.574L90.118,22.528L90.096,22.486L90.074,22.444L90.052,22.402L90.03,22.361L90.007,22.32L89.985,22.279L89.962,22.238L89.938,22.197L89.915,22.157L89.891,22.116L89.868,22.077L89.843,22.037L89.819,21.997L89.795,21.958L89.77,21.919L89.745,21.88L89.72,21.841L89.695,21.802L89.669,21.764L89.643,21.726L89.617,21.688L89.591,21.65L89.565,21.613L89.538,21.576L89.511,21.539L89.484,21.502L89.457,21.465L89.43,21.429L89.402,21.393L89.374,21.357L89.346,21.321L89.318,21.285L89.29,21.25L89.261,21.215L89.233,21.18L89.204,21.145L89.174,21.111L89.145,21.076L89.116,21.042L89.086,21.008L89.056,20.975L89.026,20.941L88.996,20.908L88.965,20.875L88.935,20.842L88.904,20.81L88.873,20.777L88.842,20.745L88.811,20.713L88.779,20.682L88.747,20.65L88.716,20.619L88.683,20.588L88.651,20.557L88.619,20.526L88.586,20.496L88.554,20.466L88.521,20.436L88.488,20.406L88.455,20.377L88.421,20.347L88.388,20.318L88.354,20.289L88.32,20.261L88.286,20.232L88.252,20.204L88.218,20.176L88.183,20.148L88.148,20.121L88.114,20.093L88.079,20.066L88.044,20.039L88.008,20.013L87.973,19.986L87.937,19.96L87.902,19.934L87.866,19.908L87.83,19.883L87.794,19.857L87.757,19.832L87.721,19.808L87.684,19.783L87.648,19.758L87.611,19.734L87.574,19.71L87.537,19.687L87.5,19.663L87.462,19.64L87.425,19.617L87.387,19.594L87.349,19.571L87.311,19.549L87.273,19.527L87.235,19.505L87.197,19.484L87.159,19.462L87.12,19.441L87.081,19.42L87.043,19.399L87.004,19.379L86.965,19.359L86.926,19.339L86.886,19.319L86.847,19.299L86.808,19.28L86.768,19.261L86.728,19.242L86.689,19.224L86.649,19.205L86.609,19.187L86.569,19.169L86.528,19.152L86.488,19.135L86.448,19.117L86.407,19.101L86.367,19.084L86.326,19.068L86.285,19.051L86.244,19.035L86.203,19.02L86.162,19.004L86.121,18.989L86.08,18.974L86.038,18.96L85.997,18.945L85.956,18.931L85.914,18.917L85.872,18.903L85.831,18.89L85.789,18.877L85.747,18.864L85.705,18.851L85.663,18.839L85.621,18.827L85.578,18.815L85.536,18.803L85.494,18.791L85.451,18.78L85.409,18.769L85.366,18.759L85.324,18.748L85.281,18.738L85.238,18.728L85.195,18.719L85.152,18.709L85.109,18.7L85.066,18.691L85.023,18.682L84.98,18.674L84.937,18.666L84.894,18.658L84.851,18.651L84.807,18.643L84.764,18.636L84.721,18.629L84.677,18.623L84.634,18.616L84.59,18.61L84.547,18.605L84.503,18.599L84.459,18.594L84.416,18.589L84.372,18.584L84.328,18.58L84.284,18.575L84.24,18.571L84.197,18.568L84.153,18.564L84.109,18.561L84.065,18.558L84.021,18.556L83.977,18.553L83.933,18.551L83.889,18.549L83.844,18.548L83.8,18.546L83.756,18.545L83.712,18.545L83.668,18.544L83.624,18.544L83.58,18.544Z" style="fill:white;"/>
    </g>
</svg>
